<svg width="21" height="22" viewBox="0 0 21 22" fill="none" xmlns="http://www.w3.org/2000/svg">
<path d="M1.39837 8.18999H19.2223" stroke="#B1BBBF" stroke-width="1.5" stroke-linecap="round" stroke-linejoin="round"/>
<path d="M14.7478 12.0954H14.7571" stroke="#B1BBBF" stroke-width="1.5" stroke-linecap="round" stroke-linejoin="round"/>
<path d="M10.3103 12.0954H10.3196" stroke="#B1BBBF" stroke-width="1.5" stroke-linecap="round" stroke-linejoin="round"/>
<path d="M5.86362 12.0954H5.87288" stroke="#B1BBBF" stroke-width="1.5" stroke-linecap="round" stroke-linejoin="round"/>
<path d="M14.7478 15.982H14.7571" stroke="#B1BBBF" stroke-width="1.5" stroke-linecap="round" stroke-linejoin="round"/>
<path d="M10.3103 15.982H10.3196" stroke="#B1BBBF" stroke-width="1.5" stroke-linecap="round" stroke-linejoin="round"/>
<path d="M5.86362 15.982H5.87288" stroke="#B1BBBF" stroke-width="1.5" stroke-linecap="round" stroke-linejoin="round"/>
<path d="M14.3494 0.785736V4.07652" stroke="#B1BBBF" stroke-width="1.5" stroke-linecap="round" stroke-linejoin="round"/>
<path d="M6.27123 0.785736V4.07652" stroke="#B1BBBF" stroke-width="1.5" stroke-linecap="round" stroke-linejoin="round"/>
<path fill-rule="evenodd" clip-rule="evenodd" d="M14.544 2.36493H6.07669C3.14 2.36493 1.30573 4.00086 1.30573 7.00796L1.30573 16.0576C1.30573 19.112 3.14 20.7857 6.07669 20.7857H14.5347C17.4807 20.7857 19.3057 19.1403 19.3057 16.1333V7.00796C19.315 4.00086 17.4899 2.36493 14.544 2.36493Z" stroke="#B1BBBF" stroke-width="1.5" stroke-linecap="round" stroke-linejoin="round"/>
</svg>
