<svg width="276" height="286" viewBox="0 0 276 286" fill="none" xmlns="http://www.w3.org/2000/svg">
<path d="M236.747 82.94C247.327 91.2022 252.047 102.474 249.729 121.921C247.684 139.081 241.04 145.966 245.64 161.537C249.923 176.035 265.998 214.751 240.12 242.147C214.242 269.543 169.178 262.378 153.027 260.048C136.876 257.718 116.84 253.587 93.9424 260.26C73.0827 266.339 54.8777 262.269 48.53 245.96C42.243 229.806 51.0091 209.628 57.347 198.188C63.6849 186.748 64.3635 176.843 54.8936 172.765C43.7 167.946 36.1867 153.963 47.9933 136.009C58.4721 120.074 78.3757 104.615 123.792 93.7444C144.368 88.8189 159.16 87.23 184.716 78.7031C199.863 73.6488 222.791 72.0421 236.747 82.94Z" fill="url(#paint0_linear_206_600)"/>
<path d="M245.64 161.537C241.04 145.966 247.684 139.081 249.729 121.921C252.047 102.474 247.327 91.2022 236.747 82.94C227.121 75.423 213.226 73.856 200.56 75.2654V225.304L242.429 239.541C265.002 212.349 249.789 175.58 245.64 161.537Z" fill="#07008D"/>
<path d="M222.487 234.067V76.3289C222.181 76.2549 221.875 76.1834 221.567 76.1151V234.067H222.487Z" fill="#1AA9E8"/>
<g opacity="0.7">
<path d="M186.096 227.681V78.2591C185.629 78.404 185.169 78.5518 184.716 78.7027L184.562 78.7533V227.428C185.082 227.511 185.593 227.595 186.096 227.681Z" fill="url(#paint1_linear_206_600)"/>
<path d="M163.525 225.571V84.9471C163.01 85.0783 162.5 85.2058 161.992 85.3322V225.542C162.507 225.549 163.018 225.559 163.525 225.571Z" fill="url(#paint2_linear_206_600)"/>
<path d="M140.954 226.426V89.9848L139.421 90.3026V226.58C139.935 226.527 140.446 226.474 140.954 226.426Z" fill="url(#paint3_linear_206_600)"/>
<path d="M118.384 230.308V95.0931C117.869 95.2262 117.358 95.3603 116.85 95.4948V230.724C117.361 230.582 117.872 230.443 118.384 230.308Z" fill="url(#paint4_linear_206_600)"/>
<path d="M95.8134 238.545V102.107C95.2973 102.299 94.7861 102.493 94.2801 102.687V239.272C94.7898 239.027 95.301 238.785 95.8134 238.545Z" fill="url(#paint5_linear_206_600)"/>
<path d="M73.2424 251.573V112.709C72.7288 113.015 72.2177 113.325 71.7091 113.64V252.656C72.2182 252.291 72.7293 251.93 73.2424 251.573Z" fill="url(#paint6_linear_206_600)"/>
</g>
<path d="M93.9424 260.26C116.84 253.587 136.876 257.718 153.027 260.048C169.178 262.378 214.242 269.543 240.12 242.147C242.801 239.308 245.027 236.346 246.867 233.303C232.195 225.216 201.764 213.878 148.938 216.407C91.0837 219.176 65.7273 239.15 56.2693 256.676C65.0952 263.735 78.8189 264.668 93.9424 260.26Z" fill="#66A3FF"/>
<path d="M228.773 135.373C229.874 135.373 230.767 134.449 230.767 133.308C230.767 132.167 229.874 131.242 228.773 131.242C227.672 131.242 226.78 132.167 226.78 133.308C226.78 134.449 227.672 135.373 228.773 135.373Z" fill="url(#paint7_linear_206_600)"/>
<path d="M215.05 134.976C216.151 134.976 217.043 134.051 217.043 132.911C217.043 131.77 216.151 130.845 215.05 130.845C213.949 130.845 213.057 131.77 213.057 132.911C213.057 134.051 213.949 134.976 215.05 134.976Z" fill="url(#paint8_linear_206_600)"/>
<path d="M44.16 97.1869C36.0333 91.308 47.1549 80.0632 39.9688 71.5C33.8354 64.1911 21.9144 57.5607 24.5395 43.582C27.2933 28.9178 50.2933 24.3631 63.0795 26.966C71.1666 28.6124 72.5264 28.3124 86.6845 25.952C105.11 22.88 119.447 29.2356 126.653 39.2456C133.468 48.7115 134.525 63.2378 122.643 70.0274C113.002 75.5374 95.8333 78.3322 84.64 82.4633C62.1006 90.7818 52.6568 103.334 44.16 97.1869Z" fill="url(#paint9_linear_206_600)"/>
<path d="M186.522 237.387C185.115 235.965 183.583 234.682 181.946 233.553C179.4 231.795 176.624 230.402 173.727 229.378C167.923 227.336 161.66 226.768 155.553 227.647C149.452 228.535 143.464 230.932 138.46 234.927C135.963 236.921 133.721 239.317 131.919 242.08C131.012 243.467 130.228 244.937 129.578 246.472C129.233 247.29 128.928 248.125 128.666 248.976L133.482 250.24C134.019 248.311 134.818 246.465 135.854 244.726C137.257 242.37 139.075 240.244 141.168 238.425C145.362 234.778 150.618 232.372 156.124 231.334C161.637 230.297 167.434 230.565 172.853 232.221C177.17 233.539 181.273 235.766 184.667 238.844L186.522 237.387Z" fill="url(#paint10_linear_206_600)"/>
<path d="M154.04 226.949C152.632 225.527 151.1 224.243 149.464 223.115C146.918 221.357 144.142 219.964 141.244 218.94C135.441 216.898 129.177 216.33 123.071 217.209C116.969 218.097 110.982 220.494 105.977 224.489C103.481 226.483 101.239 228.879 99.437 231.642C98.5294 233.029 97.7457 234.499 97.0956 236.034C96.7504 236.852 96.4458 237.687 96.1832 238.538L100.079 239.167C100.616 237.238 101.416 235.391 102.452 233.652C103.854 231.296 105.673 229.171 107.766 227.352C111.959 223.704 117.216 221.299 122.722 220.26C128.234 219.223 134.032 219.491 139.451 221.147C143.767 222.465 147.87 224.692 151.264 227.771L154.04 226.949Z" fill="url(#paint11_linear_206_600)"/>
<path d="M218.551 153.593L167.44 141.173C167.44 141.173 161.859 177.639 143.418 186.112C121.747 196.069 101.507 196.069 101.507 196.069L111.97 221.264C111.97 221.264 129.72 234.202 156.911 231.236C200.796 226.45 213.21 185.106 218.551 153.593Z" fill="url(#paint12_linear_206_600)"/>
<path d="M54.74 229.436C53.4262 230.359 40.9983 234.494 38.5762 234.628C35.976 234.771 27.4749 220.427 27.7533 217.797C27.9248 216.176 29.5522 216.903 30.5517 217.559C31.5511 218.215 37.2983 222.444 40.135 222.722C43.7297 223.075 48.6609 219.39 48.6609 219.39L54.74 229.436Z" fill="url(#paint13_linear_206_600)"/>
<path d="M36.631 219.972C36.9319 220.861 35.1327 226.178 31.1267 228.899C24.3242 219.943 25.362 215.668 25.362 215.668C25.362 215.668 25.8634 215.203 26.9269 215.393C28.2388 215.627 36.631 219.972 36.631 219.972Z" fill="url(#paint14_linear_206_600)"/>
<path d="M25.7502 215.458C25.9026 218.732 28.4093 223.465 31.1754 228.048C33.5416 231.97 35.6215 235.065 35.6757 235.235C35.73 235.405 34.4724 236.014 33.9434 235.647C33.4141 235.28 31.0202 231.662 28.2391 226.178C25.3512 220.485 24.6679 217.985 24.7627 216.765C24.8578 215.545 25.7502 215.458 25.7502 215.458Z" fill="url(#paint15_linear_206_600)"/>
<path d="M131.75 176.139C131.75 176.139 94.6318 195.594 79.6312 202.848C65.8312 209.522 45.3545 220.043 45.2846 220.749C45.2147 221.456 51.5259 230.65 53.7691 230.812C58.1646 231.13 88.9337 216.512 98.134 213.864C105.484 211.748 140.71 201.961 145.846 201.081L131.75 176.139Z" fill="url(#paint16_linear_206_600)"/>
<path d="M50.5724 228.622C50.4995 228.622 50.429 228.595 50.3736 228.546C50.3182 228.497 50.2814 228.429 50.2699 228.354C50.2585 228.279 50.273 228.203 50.3109 228.139C50.3489 228.074 50.4078 228.026 50.477 228.002C52.2532 227.399 81.665 216.106 89.7205 212.095C89.7568 212.077 89.7962 212.066 89.8365 212.064C89.8767 212.062 89.9169 212.068 89.9549 212.081C89.9929 212.095 90.0279 212.117 90.0579 212.144C90.0879 212.172 90.1124 212.206 90.1298 212.244C90.1472 212.281 90.1573 212.322 90.1596 212.364C90.1618 212.405 90.1561 212.447 90.1427 212.486C90.1294 212.526 90.1087 212.562 90.0818 212.593C90.0549 212.624 90.0224 212.65 89.9861 212.668C81.9125 216.688 52.4471 228.001 50.6681 228.606C50.6372 228.616 50.6049 228.622 50.5724 228.622Z" fill="#00E2EC"/>
<path d="M174.677 145.321C170.307 144.403 164.688 143.232 160.665 144.218C150.931 146.602 145.414 162.88 136.825 165.139C131.751 166.473 120.578 163.752 112.008 161.929L110.446 170.993C119.382 174.583 129.426 178.195 134.704 178.67C143.52 179.465 177.886 145.996 174.677 145.321Z" fill="url(#paint17_linear_206_600)"/>
<path d="M104.343 160.557C96.6767 159.763 93.9915 162.243 92.7667 163.417C92.7667 163.417 100.985 167.193 110.446 170.994L112.008 161.93C109.011 161.292 106.33 160.763 104.343 160.557Z" fill="url(#paint18_linear_206_600)"/>
<path d="M100.143 163.782C100.114 163.782 100.087 163.774 100.063 163.759C100.039 163.744 100.019 163.722 100.006 163.696C99.9935 163.67 99.9879 163.64 99.9901 163.611C99.9923 163.582 100.002 163.554 100.019 163.53C100.812 162.394 103.336 162.605 105.364 162.773C106.119 162.836 106.77 162.891 107.196 162.861C107.235 162.861 107.273 162.876 107.301 162.904C107.33 162.932 107.348 162.97 107.35 163.01C107.353 163.051 107.34 163.091 107.315 163.122C107.29 163.153 107.255 163.173 107.216 163.179C106.769 163.209 106.107 163.154 105.34 163.09C103.492 162.936 100.96 162.725 100.268 163.717C100.253 163.737 100.235 163.754 100.213 163.765C100.191 163.776 100.167 163.782 100.143 163.782Z" fill="#C66C50"/>
<path d="M110.446 171.311C110.401 171.312 110.357 171.301 110.316 171.282C110.276 171.262 110.24 171.233 110.211 171.198C110.182 171.162 110.161 171.12 110.149 171.076C110.138 171.031 110.136 170.984 110.144 170.938L111.706 161.874C111.723 161.794 111.77 161.724 111.836 161.679C111.901 161.633 111.982 161.616 112.06 161.63C112.137 161.645 112.207 161.69 112.253 161.756C112.3 161.822 112.32 161.904 112.31 161.985L110.748 171.049C110.735 171.123 110.698 171.189 110.643 171.237C110.588 171.285 110.518 171.311 110.446 171.311Z" fill="#FDE1A7"/>
<path d="M118.335 225.265C118.888 226.619 124.698 235.672 124.392 237.896C124.062 240.284 108.667 249.171 106.49 248.463C105.148 248.026 106.183 246.476 106.912 245.682C107.64 244.888 113.237 238.969 112.662 235.394C112.352 233.468 109.748 229.277 109.748 229.277L118.335 225.265Z" fill="url(#paint19_linear_206_600)"/>
<path d="M109.327 239.644C110.132 239.525 114.808 241.511 116.418 245.205C107.659 249.833 103.73 249.138 103.73 249.138C103.73 249.138 103.423 248.601 103.768 247.668C104.194 246.516 109.327 239.644 109.327 239.644Z" fill="url(#paint20_linear_206_600)"/>
<path d="M103.605 248.503C104.592 248.502 110.722 246.555 115.113 244.927C119.504 243.299 125.599 240.121 125.752 240.101C125.906 240.081 126.232 241.094 125.829 241.511C125.426 241.928 117.939 245.934 112.911 247.807C108.165 249.575 105.57 250.171 104.554 249.873C103.538 249.575 103.605 248.503 103.605 248.503Z" fill="url(#paint21_linear_206_600)"/>
<path d="M90.0579 162.173C80.1167 163.497 79.5806 175.121 81.7779 182.087C85.6367 194.321 107.539 229.607 108.356 230.601C109.55 232.056 119.702 226.576 120.111 225.623C120.52 224.669 114.105 209.799 110.911 203.378C107.129 195.775 99.7691 182.511 99.7691 182.511C99.7691 182.511 125.887 220.141 152.822 214.924C153.077 214.875 153.329 214.821 153.582 214.769L131.75 176.139C126.073 175.37 100.645 160.763 90.0579 162.173Z" fill="url(#paint22_linear_206_600)"/>
<path d="M148.497 207.942C138.738 207.942 123.5 198.64 104.303 180.938C103.821 180.494 103.481 180.181 103.303 180.026C103.272 179.999 103.247 179.967 103.228 179.93C103.21 179.893 103.198 179.852 103.195 179.81C103.191 179.769 103.195 179.727 103.208 179.687C103.22 179.647 103.239 179.61 103.265 179.578C103.291 179.546 103.323 179.52 103.358 179.501C103.394 179.481 103.433 179.47 103.473 179.466C103.513 179.462 103.554 179.467 103.592 179.479C103.631 179.492 103.666 179.512 103.697 179.539C103.878 179.696 104.222 180.013 104.71 180.463C129.69 203.496 142.852 207.752 149.502 207.27C149.542 207.267 149.582 207.272 149.621 207.285C149.659 207.298 149.695 207.318 149.725 207.346C149.756 207.373 149.781 207.407 149.798 207.445C149.816 207.482 149.826 207.523 149.829 207.565C149.832 207.606 149.827 207.648 149.814 207.688C149.801 207.727 149.781 207.764 149.755 207.795C149.728 207.827 149.696 207.853 149.66 207.871C149.624 207.89 149.585 207.901 149.544 207.904C149.203 207.929 148.853 207.942 148.497 207.942Z" fill="#00E2EC"/>
<path d="M93.6867 183.278C93.6286 183.278 93.5717 183.261 93.5226 183.229C93.4736 183.197 93.4343 183.151 93.4094 183.097C92.958 182.11 91.5845 179.104 92.7878 176.999C93.4671 175.81 94.8468 175.143 96.8886 175.017C96.9292 175.014 96.9701 175.019 97.0089 175.032C97.0476 175.045 97.0834 175.066 97.1142 175.094C97.145 175.122 97.1702 175.155 97.1882 175.193C97.2062 175.231 97.2167 175.273 97.2192 175.315C97.2216 175.357 97.2159 175.399 97.2024 175.439C97.1889 175.479 97.1679 175.516 97.1405 175.547C97.1131 175.578 97.08 175.604 97.0431 175.622C97.0061 175.64 96.9661 175.65 96.9254 175.651C95.0995 175.764 93.8851 176.326 93.3159 177.323C92.6277 178.527 92.8458 180.378 93.9642 182.825C93.9863 182.873 93.9962 182.927 93.993 182.98C93.9898 183.034 93.9736 183.086 93.9459 183.131C93.9182 183.176 93.8799 183.213 93.8346 183.239C93.7893 183.265 93.7384 183.278 93.6867 183.278ZM116.681 228.234C116.62 228.234 116.56 228.215 116.509 228.179C116.459 228.143 116.419 228.093 116.397 228.034C113.504 220.543 99.5937 192.32 97.7982 189.408C97.757 189.337 97.7442 189.252 97.7625 189.171C97.7808 189.091 97.8287 189.021 97.896 188.976C97.9633 188.932 98.0448 188.916 98.123 188.933C98.2012 188.95 98.2701 188.997 98.3149 189.066C100.116 191.987 114.066 220.289 116.966 227.798C116.984 227.846 116.991 227.898 116.986 227.95C116.981 228.002 116.963 228.051 116.935 228.094C116.907 228.137 116.869 228.172 116.825 228.196C116.781 228.221 116.732 228.234 116.681 228.234Z" fill="#00FFFF"/>
<path d="M137.524 205.085C137.481 205.085 137.439 205.076 137.4 205.058C137.361 205.04 137.325 205.014 137.297 204.981C137.268 204.948 137.246 204.909 137.233 204.867C137.219 204.825 137.214 204.78 137.219 204.736C137.414 202.675 139.355 198.446 142.898 195.912C142.965 195.866 143.047 195.85 143.125 195.866C143.204 195.882 143.273 195.929 143.319 195.997C143.364 196.065 143.382 196.149 143.369 196.231C143.356 196.313 143.312 196.386 143.247 196.435C139.741 198.941 137.989 203.119 137.829 204.798C137.822 204.877 137.786 204.95 137.73 205.003C137.674 205.056 137.6 205.085 137.524 205.085Z" fill="#00E2EC"/>
<path d="M198.209 168.528C198.337 155.711 185.073 148.799 178.582 146.39C177.547 146.005 172.186 144.503 167.586 144.185C162.986 143.867 158.119 149.893 153.435 158.254C148.273 167.469 139.79 177.003 131.867 176.155C131.83 176.151 131.788 176.144 131.75 176.139L153.582 214.769C180.919 209.144 198.017 187.708 198.209 168.528Z" fill="#FDD5A7"/>
<path d="M153.582 215.087C153.529 215.087 153.476 215.073 153.43 215.045C153.383 215.017 153.344 214.978 153.317 214.93L131.485 176.3C131.464 176.264 131.449 176.223 131.442 176.181C131.436 176.139 131.437 176.096 131.447 176.055C131.457 176.013 131.474 175.975 131.499 175.94C131.524 175.906 131.554 175.877 131.59 175.856C131.625 175.834 131.665 175.821 131.706 175.815C131.746 175.81 131.788 175.813 131.827 175.824C131.867 175.836 131.904 175.855 131.936 175.882C131.968 175.908 131.995 175.941 132.014 175.979L153.847 214.609C153.874 214.657 153.888 214.712 153.888 214.768C153.889 214.824 153.875 214.878 153.848 214.927C153.821 214.975 153.782 215.016 153.736 215.044C153.689 215.072 153.636 215.087 153.582 215.087Z" fill="white"/>
<path d="M173.018 116.446C172.464 116.352 173.062 118.609 172.194 118.823C171.197 119.068 169.913 118.571 169.792 120.809C169.71 122.311 170.201 124.728 170.405 125.178C170.609 125.628 176.947 122.159 176.947 121.444C176.947 121.126 173.341 116.5 173.018 116.446Z" fill="url(#paint23_linear_206_600)"/>
<path d="M172.807 141.782C172.452 142.7 169.996 149.409 169.996 149.832C169.996 150.256 171.082 153.685 175.548 153.725C179.765 153.762 181.598 151.263 181.751 150.68C181.905 150.097 182.608 136.966 182.608 136.966C182.608 136.966 178.071 137.809 176.333 138.763C174.596 139.716 172.807 141.782 172.807 141.782Z" fill="url(#paint24_linear_206_600)"/>
<path d="M183.638 135.263C183.828 134.877 183.987 134.475 184.115 134.062C184.529 132.696 187.833 128.064 184.115 123.695C180.397 119.326 175.57 119.603 175.57 119.603C167.287 122.861 165.265 136.893 168.168 140.418C171.459 144.414 176.767 142.639 180.403 139.395C180.918 139.872 181.636 140.17 182.43 140.17C183.997 140.17 185.268 139.016 185.268 137.593C185.268 136.562 184.6 135.676 183.638 135.263Z" fill="url(#paint25_linear_206_600)"/>
<path d="M174.777 126.59C173.999 127.034 168.688 130.787 168.769 132.01C168.849 133.232 170.861 133.038 171.988 132.871C173.114 132.705 175.26 127.246 175.26 126.868C175.26 126.437 174.777 126.59 174.777 126.59Z" fill="url(#paint26_linear_206_600)"/>
<path d="M169.395 135.036C169.874 135.989 172.538 136.684 173.554 136.724C173.343 137.201 171.974 138.981 170.334 138.432C168.437 137.796 169.395 135.036 169.395 135.036Z" fill="white"/>
<path d="M176.754 131.481C176.638 131.48 176.524 131.45 176.422 131.392C176.32 131.333 176.234 131.249 176.172 131.148C176.11 131.046 176.073 130.929 176.066 130.809C176.059 130.688 176.082 130.568 176.132 130.459C176.547 129.551 177.531 128.581 177.999 128.338C178.163 128.254 178.352 128.24 178.526 128.3C178.7 128.359 178.843 128.488 178.925 128.658C179.007 128.828 179.02 129.024 178.962 129.204C178.905 129.384 178.78 129.533 178.616 129.617C178.428 129.718 177.665 130.446 177.379 131.072C177.323 131.194 177.234 131.297 177.124 131.37C177.013 131.442 176.885 131.481 176.754 131.481ZM171.104 127.907C171.001 127.907 170.899 127.88 170.808 127.828C170.718 127.776 170.641 127.702 170.586 127.611C170.531 127.521 170.498 127.417 170.492 127.31C170.486 127.203 170.506 127.096 170.55 126.999C170.864 126.313 171.646 125.487 172.084 125.259C172.229 125.189 172.395 125.18 172.546 125.234C172.697 125.288 172.822 125.402 172.894 125.55C172.965 125.698 172.978 125.87 172.93 126.028C172.881 126.186 172.775 126.318 172.633 126.396C172.478 126.482 171.885 127.049 171.659 127.543C171.609 127.652 171.531 127.744 171.432 127.809C171.334 127.873 171.22 127.907 171.104 127.907Z" fill="#0090B2"/>
<path d="M184.728 118.69C183.962 117.975 184.11 115.796 182.85 115.234C181.572 114.665 179.856 115.788 179.017 115.353C178.352 115.009 178.25 113.486 177.982 112.493C177.713 111.5 177.126 110.322 175.95 110.428C172.375 110.75 171.585 116.183 174.346 120.187C177.202 124.331 184 124.939 183.924 129.997C183.881 132.778 180.525 133.864 181.192 135.275C181.849 136.662 183.573 135.315 183.633 135.267C183.634 135.264 183.636 135.262 183.637 135.26C184.36 135.569 184.917 136.147 185.149 136.852C186.988 135.81 190.746 133.135 190.9 128.621C191.107 122.557 185.495 119.405 184.728 118.69Z" fill="url(#paint27_linear_206_600)"/>
<path d="M131.828 142.881C131.828 142.364 131.713 136.565 132.173 136.327C132.633 136.088 139.252 138.293 139.763 140.14C140.319 142.146 140.036 155.773 139.15 156.413C137.885 157.326 132.162 153.636 131.932 152.325C131.702 151.014 131.828 142.881 131.828 142.881Z" fill="url(#paint28_linear_206_600)"/>
<path d="M129.807 134.078L128.736 133.459C129.752 131.573 131.457 130.448 133.298 130.448C134.214 130.448 135.121 130.731 135.92 131.268L135.253 132.334C134.645 131.926 133.987 131.719 133.298 131.719C131.908 131.719 130.603 132.601 129.807 134.078ZM127.962 130.323L126.688 129.773C127.547 127.638 129.254 126.185 131.372 125.788C133.28 125.429 135.138 126.008 136.342 127.338L135.336 128.316C134.467 127.357 133.043 126.927 131.618 127.195C129.97 127.504 128.637 128.645 127.962 130.323ZM125.275 125.434L123.755 124.359C125.839 121.192 128.93 119.375 132.236 119.375C133.735 119.375 135.186 119.742 136.551 120.466L135.712 122.163C134.61 121.578 133.44 121.282 132.236 121.282C129.548 121.282 127.011 122.795 125.275 125.434Z" fill="#FF9BBB"/>
<path d="M143.233 160.817L143.232 160.815C142.129 158.265 141.45 151.871 141.348 149.302C141.246 146.734 140.914 146.272 140.402 146.257C139.744 146.237 139.457 146.773 139.131 148.362C138.828 149.842 138.997 153.327 138.268 153.566C137.54 153.804 134.55 147.857 133.783 145.82C132.902 143.476 132.824 141.443 131.959 141.399C131.42 141.371 131.321 142.129 131.292 143.258C131.265 144.291 131.56 146.098 131.56 146.098C131.56 146.098 130.96 146.231 130.832 147.211C130.641 148.673 131.023 150.11 131.023 150.11C131.023 150.11 130.632 150.841 130.851 152.494C131.177 154.956 132.318 157.532 133.809 160.001C134.155 160.575 134.791 162.749 135.556 165.456C137.118 165.265 139.798 164.387 143.233 160.817Z" fill="url(#paint29_linear_206_600)"/>
<path d="M133.515 150.587C133.491 150.587 133.467 150.581 133.445 150.57C133.424 150.558 133.405 150.542 133.391 150.521C132.756 149.617 131.569 146.51 131.372 145.876C131.36 145.835 131.363 145.792 131.382 145.754C131.4 145.717 131.432 145.688 131.471 145.676C131.51 145.663 131.552 145.666 131.588 145.685C131.624 145.705 131.651 145.738 131.664 145.778C131.851 146.382 133.033 149.472 133.639 150.335C133.655 150.358 133.665 150.386 133.668 150.415C133.67 150.445 133.664 150.474 133.652 150.5C133.639 150.526 133.619 150.548 133.595 150.564C133.571 150.579 133.543 150.587 133.515 150.587ZM132.134 152.811C132.114 152.811 132.094 152.807 132.076 152.799C132.058 152.791 132.041 152.779 132.027 152.765C131.84 152.571 131.026 150.935 130.873 150.141C130.868 150.12 130.868 150.099 130.871 150.078C130.874 150.056 130.882 150.036 130.893 150.018C130.904 150 130.919 149.985 130.936 149.973C130.953 149.961 130.972 149.952 130.992 149.948C131.012 149.944 131.033 149.944 131.054 149.948C131.074 149.953 131.093 149.961 131.11 149.974C131.127 149.986 131.141 150.001 131.152 150.02C131.163 150.038 131.17 150.058 131.174 150.079C131.326 150.868 132.12 152.409 132.244 152.54C132.265 152.562 132.279 152.591 132.285 152.622C132.29 152.652 132.287 152.684 132.276 152.713C132.264 152.742 132.244 152.767 132.219 152.784C132.194 152.802 132.164 152.811 132.134 152.811Z" fill="#C66C50"/>
<path d="M188.6 162.861C175.107 162.226 162.828 183.04 158.905 182.723C156.937 182.563 145.976 167.154 143.233 160.817C139.798 164.387 137.118 165.265 135.557 165.456C136.513 168.845 137.671 173.069 138.716 176.049C142.447 186.694 146.893 196.599 154.79 199.326C164.708 202.751 176.487 195.592 184.46 187.807C192.433 180.021 202.093 163.497 188.6 162.861Z" fill="url(#paint30_linear_206_600)"/>
<path d="M160.227 200.536C158.378 200.536 156.523 200.26 154.693 199.628C146.654 196.851 142.125 186.707 138.428 176.158C137.511 173.543 136.513 169.993 135.632 166.86L135.262 165.546C135.249 165.502 135.246 165.455 135.253 165.409C135.259 165.364 135.275 165.32 135.3 165.281C135.325 165.243 135.357 165.21 135.395 165.186C135.433 165.162 135.476 165.146 135.52 165.141C137.133 164.944 139.743 163.994 143.015 160.593C143.05 160.557 143.094 160.53 143.141 160.514C143.188 160.499 143.239 160.496 143.287 160.505C143.336 160.515 143.382 160.536 143.421 160.568C143.46 160.599 143.492 160.64 143.512 160.687C146.403 167.366 157.286 182.274 158.928 182.406C160.165 182.512 162.723 179.856 165.673 176.785C171.618 170.6 179.761 162.133 188.614 162.544C191.208 162.667 193.114 163.381 194.279 164.667C194.308 164.697 194.33 164.733 194.346 164.772C194.361 164.811 194.369 164.854 194.368 164.896C194.367 164.939 194.358 164.98 194.342 165.019C194.325 165.058 194.301 165.093 194.271 165.122C194.241 165.151 194.206 165.174 194.168 165.189C194.129 165.203 194.088 165.21 194.047 165.208C194.007 165.206 193.966 165.196 193.929 165.177C193.892 165.159 193.859 165.134 193.832 165.102C192.78 163.941 191.014 163.294 188.586 163.179C180.005 162.766 171.972 171.132 166.108 177.234C162.801 180.677 160.411 183.155 158.881 183.04C156.73 182.866 146.069 167.721 143.138 161.361C140.11 164.406 137.617 165.429 135.95 165.72L136.221 166.683C137.099 169.806 138.094 173.346 139.004 175.941C142.649 186.34 147.096 196.334 154.887 199.026C166.978 203.202 180.418 191.318 184.25 187.577C185.775 186.087 187.336 184.302 188.764 182.412C188.814 182.346 188.888 182.303 188.968 182.293C189.049 182.282 189.13 182.306 189.194 182.358C189.258 182.41 189.3 182.486 189.31 182.569C189.32 182.653 189.297 182.737 189.247 182.804C187.8 184.718 186.217 186.529 184.67 188.039C181.35 191.28 170.921 200.535 160.227 200.536Z" fill="white"/>
<path d="M167.278 216.941C168.316 214.412 169.761 212.078 171.502 210.036C173.242 207.99 175.275 206.236 177.481 204.798C179.687 203.359 182.065 202.234 184.518 201.401C186.709 200.657 188.964 200.133 191.252 199.836C191.224 199.279 191.095 198.76 190.851 198.291C188.822 194.384 179.689 195.531 171.91 199.854C163.999 204.251 160.283 210.48 162.312 214.387C163.155 216.01 164.896 216.932 167.198 217.146C167.226 217.078 167.25 217.009 167.278 216.941Z" fill="url(#paint31_linear_206_600)"/>
<path d="M190.842 199.022C188.277 199.297 185.748 199.855 183.297 200.686C180.844 201.519 178.466 202.644 176.259 204.083C174.054 205.521 172.021 207.275 170.281 209.321C168.54 211.364 167.095 213.698 166.057 216.227C165.017 218.754 164.387 221.475 164.225 224.233C164.11 226.145 164.229 228.081 164.555 229.969C165.573 229.739 166.568 229.485 167.549 229.212C167.252 227.625 167.133 226.008 167.195 224.392C167.289 221.986 167.79 219.594 168.664 217.347C169.535 215.098 170.775 212.995 172.3 211.131C173.824 209.263 175.631 207.634 177.621 206.277C181.608 203.564 186.304 201.927 191.094 201.301C194.896 200.815 198.803 200.967 202.531 201.868C202.898 201.268 203.257 200.662 203.609 200.052C199.464 198.865 195.107 198.57 190.842 199.022Z" fill="url(#paint32_linear_206_600)"/>
<path d="M250.052 227.115H222.706L226.972 252.487C231.692 249.764 236.134 246.366 240.12 242.147C244.591 237.413 247.808 232.342 250.052 227.115Z" fill="url(#paint33_linear_206_600)"/>
<path d="M236.988 219.213C229.081 219.213 222.671 223.006 222.671 227.683C222.671 232.362 229.081 236.154 236.988 236.154C240.594 236.154 243.887 235.363 246.404 234.061C248.129 231.32 249.588 228.409 250.76 225.37C249.058 221.817 243.538 219.213 236.988 219.213Z" fill="#FF9BBB"/>
<path d="M236.988 233.947C243.389 233.947 248.578 230.97 248.578 227.297C248.578 223.624 243.389 220.647 236.988 220.647C230.587 220.647 225.398 223.624 225.398 227.297C225.398 230.97 230.587 233.947 236.988 233.947Z" fill="url(#paint34_linear_206_600)"/>
<path d="M243.072 162.368C243.508 163.337 242.859 164.287 241.635 164.807C240.245 165.396 239.188 165.297 238.715 166.596C238.243 167.895 238.582 169.388 237.751 169.379C236.919 169.37 235.534 165.815 237.069 163.21C238.617 160.583 242.078 160.157 243.072 162.368Z" fill="url(#paint35_linear_206_600)"/>
<path d="M235.095 214.301C234.422 212.385 227.57 202.366 215.548 201.408C204.687 200.542 200.397 205.705 201.466 207.985C202.18 209.51 204.744 209.074 205.795 208.769C206.846 208.464 208.69 207.372 209.915 208.029C211.134 208.682 210.989 210.355 212.227 210.991C214.447 212.131 216.732 210.226 218.616 209.466C220.886 208.552 224.711 207.724 227.444 210.337C230.789 213.537 231.489 216.303 232.535 221.161C233.581 226.019 234.076 228.422 234.296 228.719C234.569 229.09 235.011 229.504 236.188 229.024C237.365 228.545 235.851 222.316 235.977 219.79C236.103 217.263 235.095 214.301 235.095 214.301Z" fill="url(#paint36_linear_206_600)"/>
<path d="M232.32 228.807C232.31 228.36 230.807 225.438 230.512 222.665C230.129 219.051 228.389 215.242 226.813 213.779C224.921 212.022 222.483 211.176 221.432 212.515C220.521 213.677 221.418 215.797 222.483 216.871C223.847 218.246 230.098 222.043 229.013 224.132C228.424 225.264 227.35 223.591 226.855 222.796C225.986 221.402 224.521 220.033 223.605 220.647C222.652 221.285 222.959 223.26 225.034 224.509C227.063 225.731 228.868 226.742 229.742 227.761C230.567 228.725 229.769 228.69 230.218 229.242C230.735 229.878 232.348 229.997 232.32 228.807Z" fill="url(#paint37_linear_206_600)"/>
<path d="M241.148 228.763C240.597 228.424 241.106 225.365 242.157 223.841C243.208 222.316 245.183 221.576 245.183 220.487C245.183 219.398 244.663 218.438 245.267 217.089C245.814 215.87 247.957 216.349 248.042 214.388C248.126 212.428 247.164 210.012 246.429 205.745C245.772 201.931 246.37 200.616 247.327 200.014C248.504 199.274 248.756 197.488 247.873 194.961C247.259 193.203 247.608 182.131 251.363 181.85C254.557 181.61 255.874 187.508 255.903 190.518C255.945 194.94 254.298 196.039 254.936 198.315C255.693 201.016 256.73 201.394 256.954 204.37C257.138 206.823 257.122 210.163 252.162 216.436C247.467 222.372 244.377 224.92 243.544 226.15C242.521 227.66 242.115 229.359 241.148 228.763Z" fill="url(#paint38_linear_206_600)"/>
<path d="M237.028 228.545C237.028 226.367 236.103 219.311 238.037 215.564C239.971 211.818 241.064 207.985 240.139 203.803C239.214 199.622 234.675 191.563 235.011 188.775C235.347 185.988 236.734 181.283 234.254 172.179C232.376 165.285 228.114 160.605 225.174 162.509C223.156 163.815 224.081 168.694 225.09 170.524C226.099 172.353 227.852 175.546 227.516 177.375C227.179 179.205 226.073 179.404 226.167 181.887C226.352 186.771 232.951 194.264 234.506 200.928C235.797 206.458 236.272 213.125 234.927 213.386C233.581 213.647 235.018 226.767 235.645 228.114C236.272 229.46 237.028 228.545 237.028 228.545Z" fill="url(#paint39_linear_206_600)"/>
<path d="M241.092 170.234C239.831 171.105 239.69 173.196 240.195 174.648C240.699 176.1 241.164 176.77 241.035 177.727C240.896 178.772 238.962 179.12 238.345 181.269C237.729 183.418 238.738 187.715 239.803 190.794C240.868 193.873 240.587 196.138 239.522 196.312C238.458 196.486 237.504 194.976 237.168 193.117C236.832 191.259 236.993 183.072 232.236 184.521C230.331 185.102 230.47 188.441 231.676 190.794C232.605 192.608 235.739 196.573 237.336 201.945C238.814 206.915 239.977 210.859 237.056 211.47C234.562 211.993 233.189 209.089 232.853 207.231C232.516 205.372 231.374 198.979 225.847 200.087C223.24 200.609 224.868 207.168 228.705 210.599C231.321 212.939 234.644 215.853 235.599 219.892C236.636 224.276 235.15 228.778 235.767 229.649C236.384 230.52 238.794 229.998 238.738 229.417C238.681 228.836 238.065 227.674 239.243 226.687C240.42 225.7 243.157 224.334 245.015 222.97C246.874 221.606 246.696 219.485 245.744 218.73C244.791 217.975 243.691 218.925 243.278 219.427C242.465 220.414 240.587 226.411 238.345 224.828C236.919 223.821 239.204 218.887 240.812 216.639C243.221 213.27 248.63 211.992 251.685 207.753C253.838 204.765 252.573 201.413 251.124 200.842C249.135 200.057 247.311 201.925 246.914 203.811C246.381 206.337 245.307 210.351 242.437 208.102C239.102 205.488 244.123 200.565 246.584 197.764C251.152 192.565 253.338 184.405 249.387 183.128C247.628 182.559 246.164 185.102 245.744 188.007C245.262 191.339 242.896 202.005 240.812 200.784C239.522 200.028 242.381 197.473 242.493 195.324C242.605 193.175 242.325 190.097 243.334 187.367C244.343 184.637 246.992 177.414 245.575 173.138C244.287 169.246 241.653 169.847 241.092 170.234Z" fill="url(#paint40_linear_206_600)"/>
<path d="M213.299 213.495C212.142 214.062 212.542 215.87 214.659 217.475C216.661 218.993 219.533 219.052 219.604 218.255C219.675 217.458 218.063 217.41 216.746 216.109C215.428 214.808 214.838 212.742 213.299 213.495Z" fill="url(#paint41_linear_206_600)"/>
<path d="M88.9088 57.5003C88.3964 57.7393 89.9695 60.8618 90.4709 61.7372C90.9723 62.6127 97.2575 68.973 99.6838 74.1801C102.111 79.3873 102.139 86.2878 101.965 87.8424C101.791 89.3969 105.679 90.0385 105.679 90.0385C105.679 90.0385 107.589 81.3969 103.912 73.7654C100.89 67.4935 94.5852 62.1335 93.2874 60.9244C91.7497 59.4912 89.4427 57.2512 88.9088 57.5003Z" fill="url(#paint42_linear_206_600)"/>
<path d="M102.879 71.8556C103.251 72.4756 103.596 73.1128 103.913 73.7651C104.035 74.0193 104.15 74.2748 104.261 74.531C103.769 74.347 101.175 74.625 100.399 75.8802C100.181 75.3046 99.9426 74.7375 99.6842 74.1801C99.6182 74.0394 99.5504 73.8997 99.4805 73.761C100.075 72.44 102.184 71.8044 102.879 71.8556Z" fill="url(#paint43_linear_206_600)"/>
<path d="M106.1 86.7556C105.961 88.7595 105.68 90.0382 105.68 90.0382C105.68 90.0382 101.791 89.3966 101.965 87.842C102.01 87.4464 102.025 86.6869 102.038 85.7199C103.513 85.3233 105.123 85.9325 106.1 86.7556Z" fill="url(#paint44_linear_206_600)"/>
<path d="M104.26 88.0171C103.118 87.4165 100.242 86.3885 97.5506 90.3811C94.859 94.3736 94.0215 98.39 95.8051 100.975C97.5884 103.561 101.6 104.906 103.587 103.076C105.954 100.894 107.554 94.3005 106.492 90.7325C105.979 89.0114 104.604 88.1983 104.26 88.0171Z" fill="url(#paint45_linear_206_600)"/>
<path d="M97.5504 90.3811C99.4508 87.5624 101.442 87.2468 102.851 87.5157C101.508 88.101 96.4007 95.3317 96.2765 101.572C96.1073 101.384 95.9497 101.184 95.8045 100.975C94.0213 98.39 94.8584 94.3736 97.5504 90.3811Z" fill="url(#paint46_linear_206_600)"/>
<path d="M61.9467 135.373L102.733 137.174V103.49H61.9467V135.373Z" fill="#0D00A5"/>
<path d="M111.422 122.662L102.733 137.174V103.49L111.422 91.2022V122.662Z" fill="#0B008F"/>
<path d="M111.422 91.2022H76.13L61.9467 103.49H102.733L111.422 91.2022Z" fill="#615DFF"/>
<path d="M49.0667 60.775C49.1906 59.1041 51.3155 39.4044 63.25 35.1939C66.2826 34.1239 72.45 34.2669 76.6921 36.3325C83.6936 39.7416 91.0678 45.7187 93.0734 50.5267C95.68 56.7764 95.0277 71.2807 94.6144 72.3812C94.0777 73.8112 90.39 77.2597 86.0967 78.3322C82.6764 79.1867 70.61 80.0005 66.0867 78.3322C61.5634 76.6639 48.6067 66.9717 49.0667 60.775Z" fill="url(#paint47_linear_206_600)"/>
<path d="M76.5728 39.0676C77.7437 40.081 78.928 41.205 79.8723 42.5304C80.8266 43.8476 81.5635 45.3135 82.1413 46.8211C83.2956 49.8473 83.8663 53.0269 84.3097 56.1733C84.7443 59.3288 85.031 62.4951 85.2233 65.6688C85.4073 68.8437 85.5112 72.0221 85.4051 75.2259L83.9512 75.1624C84.0819 72.0437 84.0077 68.8904 83.8528 65.7504C83.69 62.6092 83.4327 59.4692 83.0319 56.3579C82.6231 53.2513 82.0876 50.1577 81.0171 47.2787C80.4813 45.8439 79.8051 44.4743 78.9354 43.2511C78.0724 42.0185 76.9997 40.9762 75.8405 39.9532L76.5728 39.0676Z" fill="url(#paint48_linear_206_600)"/>
<path d="M83.72 54.1811C78.4662 54.3184 72.22 52.2214 71.1838 50.8629C71.1838 50.8629 70.495 58.3519 71.1466 63.7675C73.2933 68.0044 79.7256 70.349 84.5888 69.9642C90.275 69.5139 94.0954 65.2506 94.9679 63.0821C94.8428 58.6113 94.3475 53.5824 93.073 50.527C92.7973 49.8654 92.4164 49.1815 91.9521 48.4856C91.5759 51.4816 88.2801 54.0619 83.72 54.1811Z" fill="#FDE1A7"/>
<path d="M70.5334 75.5517C71.4534 74.2011 71.78 59.7413 71.4534 53.625C71.0955 46.9253 68.9234 42.2247 64.1955 40.0931C61.0908 38.6933 56.9097 39.6475 54.8477 42.4182C50.2069 49.7443 49.1529 59.6135 49.0664 60.775C48.6064 66.9717 61.5631 76.6639 66.0864 78.3322C66.2888 78.4069 66.5108 78.4749 66.742 78.5397C68.4861 77.7732 69.8381 76.572 70.5334 75.5517Z" fill="url(#paint49_linear_206_600)"/>
<path d="M67.1794 37.8852C69.1543 39.7337 73.106 42.7192 77.7913 41.3111C81.6181 40.1611 77.3328 36.0684 75.5455 35.3353C71.4991 33.9733 66.6108 34.2936 64.5279 34.4128C63.8741 34.4503 61.8032 35.083 61.1264 35.3331C60.9648 35.3928 60.9503 35.8495 60.9832 36.2381C61.821 35.7923 64.4503 35.3309 67.1794 37.8852Z" fill="url(#paint50_linear_206_600)"/>
<path d="M53.82 65.5814C53.935 63.6747 54.3883 50.6633 60.9883 52.4731C65.5755 53.7308 64.7784 63.0563 64.5917 66.3758C64.4466 68.9546 63.9783 73.2875 63.9783 73.2875L53.82 65.5814Z" fill="#FDE1A7"/>
<path d="M60.9883 52.4731C60.6288 52.3723 60.2591 52.3156 59.8868 52.304C63.8051 54.1814 63.0749 62.8116 62.8967 65.9792C62.7906 67.8646 62.5122 70.6855 62.3699 72.0676L63.9783 73.2878C63.9783 73.2878 64.4466 68.9549 64.5917 66.3762C64.7784 63.0563 65.5754 53.7308 60.9883 52.4731Z" fill="url(#paint51_linear_206_600)"/>
<path d="M71.4534 53.625C71.0955 46.9253 68.9234 42.2247 64.1955 40.0931C63.7836 39.9092 63.3561 39.7654 62.9185 39.6634C67.5492 41.8243 69.686 46.4941 70.0402 53.1274C70.3668 59.2436 70.0402 73.7035 69.1202 75.054C68.44 76.0525 67.2686 77.3328 65.6512 78.1581C65.8036 78.2232 65.949 78.2817 66.0864 78.3322C66.2888 78.4069 66.5108 78.4749 66.742 78.5397C68.4857 77.7733 69.8381 76.5721 70.533 75.5517C71.4534 74.2011 71.78 59.7413 71.4534 53.625Z" fill="url(#paint52_linear_206_600)"/>
<path d="M67.3069 36.6239C69.548 38.1111 72.684 42.0439 77.3696 40.6358C81.1964 39.4858 76.8442 35.5829 75.0567 34.8497C71.9646 33.3403 66.0861 33.3123 63.4546 34.2406C62.6208 34.536 61.8162 34.9131 61.0515 35.3668C62.0479 34.8768 64.6582 34.8666 67.3069 36.6239Z" fill="url(#paint53_linear_206_600)"/>
<path d="M71.2268 36.8242C72.8027 37.487 74.3141 37.4272 74.6026 36.6907C74.891 35.9542 73.8473 34.8198 72.2714 34.1571C70.6954 33.4943 69.184 33.5541 68.8956 34.2907C68.6071 35.0272 69.6508 36.1615 71.2268 36.8242Z" fill="#9F36AD"/>
<path d="M94.7468 71.6297C94.7088 71.6643 94.6702 71.698 94.6324 71.7329L94.2951 72.0507L94.1326 72.2074C94.0907 72.2473 94.0472 72.2854 94.0022 72.3215C93.6226 72.6221 93.1025 72.8512 92.5772 73.038C91.5115 73.4082 90.3667 73.6399 89.2201 73.8277C88.0648 74.0092 86.9043 74.1534 85.7403 74.2602C84.5732 74.3695 83.4014 74.4464 82.2281 74.5052C81.0554 74.5713 79.8808 74.6158 78.706 74.6396C76.3606 74.6724 73.9965 74.6968 71.6898 74.5278C71.1145 74.4801 70.5527 74.4283 70.0445 74.3088C69.5134 74.1928 68.9782 74.0241 68.4477 73.8284C67.3857 73.4327 66.3412 72.924 65.3182 72.365C63.2687 71.2461 61.2981 69.9279 59.3771 68.5377C57.4514 67.1449 55.5873 65.6628 53.7906 64.0958C52.8896 63.3159 51.9996 62.5212 51.1477 61.6911C50.7226 61.2795 50.3098 60.8543 49.91 60.4162C49.6625 60.142 49.4105 59.8553 49.1964 59.5687C49.1437 59.9695 49.1005 60.3717 49.0667 60.7747C49.0639 60.8134 49.0639 60.8529 49.0618 60.8919C49.1078 60.951 49.1532 61.0108 49.2001 61.0689C49.5905 61.545 49.9951 62.0083 50.4133 62.4583C51.2427 63.3521 52.1003 64.2173 52.9846 65.0526C54.7593 66.7109 56.6054 68.2852 58.5172 69.7706C60.437 71.2499 62.4324 72.6357 64.5564 73.8404C65.6221 74.4363 66.7206 74.9876 67.8837 75.4347C68.4661 75.6562 69.0647 75.8529 69.6909 75.9969C70.3395 76.1456 70.9621 76.1977 71.5659 76.2479C73.9855 76.4132 76.3643 76.4122 78.7523 76.3185C79.9449 76.2724 81.1363 76.206 82.3271 76.1173C83.5173 76.0201 84.7066 75.8977 85.8943 75.7455C87.082 75.592 88.2688 75.4122 89.4504 75.1652C90.632 74.9161 91.8114 74.6272 92.9761 74.1652C93.1543 74.0917 93.3307 74.0141 93.5054 73.9323C94.0789 73.3234 94.4671 72.7756 94.615 72.3815C94.6573 72.2674 94.7027 72.0075 94.7468 71.6297Z" fill="url(#paint54_linear_206_600)"/>
<path d="M55.9273 63.222C55.6114 65.4349 56.3276 67.3778 57.5269 67.5616C58.7262 67.7454 59.9544 66.1005 60.2703 63.8876C60.5861 61.6747 59.8699 59.7318 58.6707 59.548C57.4714 59.3642 56.2431 61.0091 55.9273 63.222Z" fill="#9F36AD"/>
<path d="M94.1623 58.8245C94.1623 56.2069 92.6452 54.9581 90.5844 54.9581C89.7568 54.9581 88.9944 55.2409 88.3758 55.7134L88.3728 55.7109C88.3728 55.7109 87.0572 56.9197 83.9742 57.0411C80.8278 57.165 78.8756 56.2839 78.1648 55.8879C78.0703 55.8249 77.973 55.7664 77.8734 55.7125L77.8562 55.7007L77.8535 55.7026C77.3282 55.4225 76.746 55.2763 76.1552 55.2762C74.0947 55.2762 72.424 57.0071 72.424 59.1426C72.424 59.6695 72.5264 60.1709 72.7107 60.6285L72.7104 60.6295C72.948 61.5695 76.3392 67.6374 83.9497 67.6603C90.885 67.6813 94.1623 61.4106 94.1623 58.8245Z" fill="#C7A0F6"/>
<path d="M76.1269 61.0133L75.2425 60.1328C75.5943 59.7506 76.0176 59.4467 76.4866 59.2397C76.9555 59.0327 77.4603 58.9269 77.97 58.9287C78.8302 58.9287 79.6407 59.2204 80.3141 59.7721L79.5536 60.7693C79.1035 60.3985 78.545 60.1977 77.97 60.1998C77.6255 60.1984 77.2844 60.2698 76.9675 60.4097C76.6506 60.5496 76.3646 60.755 76.1269 61.0133ZM87.9915 60.284L87.1071 59.4035C87.459 59.0213 87.8823 58.7174 88.3512 58.5104C88.8202 58.3034 89.3249 58.1976 89.8346 58.1994C90.6948 58.1994 91.5053 58.4911 92.1788 59.0428L91.4182 60.04C90.9681 59.6692 90.4096 59.4684 89.8346 59.4705C89.4902 59.4693 89.1491 59.5408 88.8322 59.6806C88.5154 59.8205 88.2293 60.0258 87.9915 60.284Z" fill="#212F66"/>
<path d="M83.8828 65.7006C82.458 65.7006 81.178 64.8098 80.7701 63.5349L81.3522 63.335C81.6782 64.3538 82.7187 65.065 83.8828 65.065C85.1009 65.065 86.1534 64.3122 86.4429 63.2346L87.0338 63.4049C86.671 64.7564 85.375 65.7006 83.8828 65.7006Z" fill="#9F36AD"/>
<path d="M71.7287 22.7758L82.5108 19.5061L82.872 21.0502L71.8425 23.2623L71.7287 22.7758Z" fill="#C7A0F6"/>
<path d="M71.7171 23.2356L61.9633 20.5167L62.4414 19.0069L71.8542 22.8025L71.7171 23.2356Z" fill="#C7A0F6"/>
<path d="M71.8704 23.2976L60.8997 27.4112L60.4382 25.896L71.7008 22.7405L71.8704 23.2976Z" fill="#C7A0F6"/>
<path d="M71.8907 22.7704L81.9061 26.7401L81.2918 28.1958L71.6806 23.2677L71.8907 22.7704Z" fill="#C7A0F6"/>
<path d="M72.5779 22.6464H70.9933V35.538H70.9949C70.9949 35.5406 70.9933 35.5431 70.9933 35.5457C70.9933 35.7576 71.3482 35.9296 71.7855 35.9296C72.2228 35.9296 72.5776 35.7576 72.5776 35.5457C72.5776 35.5431 72.5761 35.5406 72.5761 35.538H72.5776V22.6464H72.5779Z" fill="url(#paint55_linear_206_600)"/>
<path d="M71.7855 24.072C72.9075 24.072 73.8171 23.6006 73.8171 23.0192C73.8171 22.4377 72.9075 21.9664 71.7855 21.9664C70.6634 21.9664 69.7538 22.4377 69.7538 23.0192C69.7538 23.6006 70.6634 24.072 71.7855 24.072Z" fill="#FF58B8"/>
<path d="M71.7855 23.1183C72.4157 23.1183 72.9266 22.6749 72.9266 22.1278C72.9266 21.5808 72.4157 21.1373 71.7855 21.1373C71.1552 21.1373 70.6443 21.5808 70.6443 22.1278C70.6443 22.6749 71.1552 23.1183 71.7855 23.1183Z" fill="#9F36AD"/>
<path d="M71.8238 18.0339C61.9792 18.0339 53.9988 20.7372 53.9988 24.0717C53.9988 27.4061 61.9792 30.1094 71.8238 30.1094C81.6684 30.1094 89.6488 27.4061 89.6488 24.0717C89.6488 20.7372 81.6684 18.0339 71.8238 18.0339ZM71.9057 27.3289C64.4138 27.3289 58.3406 25.6037 58.3406 23.4758C58.3406 21.348 64.4138 19.6228 71.9057 19.6228C79.3975 19.6228 85.4708 21.348 85.4708 23.4758C85.4708 25.6037 79.3972 27.3289 71.9057 27.3289Z" fill="url(#paint56_linear_206_600)"/>
<path d="M80.929 26.3527C80.9198 26.3479 80.4632 26.4753 80.4583 26.4658C79.8891 26.5974 79.2807 26.7156 78.6404 26.8198C78.6846 26.8595 78.7327 26.8958 78.7861 26.9263C78.768 26.9104 78.8035 26.9269 78.8183 26.9333C78.8859 26.9662 78.9504 27.0057 79.0108 27.0512C79.2786 27.2525 79.4659 27.5484 79.5374 27.8831C79.6481 28.3642 79.5426 28.9721 79.32 29.5495C79.6751 29.4936 80.7935 29.2845 81.1354 29.2209C81.5062 28.9775 82.1195 26.9517 80.929 26.3527ZM62.3834 29.043C62.1601 28.4653 62.0543 27.8567 62.1653 27.375C62.2367 27.0402 62.424 26.7442 62.6919 26.543C62.7342 26.5113 62.7781 26.4823 62.8216 26.4575C62.8431 26.4452 62.8648 26.434 62.8845 26.4251C62.8992 26.4188 62.9348 26.4023 62.9167 26.4181C62.9384 26.4057 62.9565 26.3892 62.9768 26.3752C62.3637 26.2227 60.996 25.7368 60.9565 25.7508C59.6562 26.2068 60.2122 28.4116 60.5072 28.7366C60.8433 28.8193 62.0602 29.1243 62.4134 29.199C62.4129 29.1473 62.4033 29.0962 62.3852 29.0481L62.3834 29.043ZM62.694 20.6476C63.1795 20.5316 64.392 20.2663 64.9321 20.1703C64.9321 20.1703 64.4258 18.8283 63.2638 18.7753C62.4674 18.923 61.2309 19.2189 60.5146 19.4048C61.9402 19.2122 62.6818 20.6238 62.694 20.6476ZM79.8165 20.3454C80.3402 20.4658 82.0493 20.9298 82.5047 21.0709C82.5096 21.0464 82.9601 19.8281 84.5799 19.856C83.6878 19.5462 82.6991 19.2691 81.6292 19.0298C80.4043 19.0667 79.8293 20.3047 79.8165 20.3454Z" fill="#F9A449"/>
<path d="M84.6286 31.5623C85.9648 31.127 87.2871 30.6903 88.5828 30.1987C89.8766 29.7074 91.1468 29.1669 92.3422 28.5231C92.9359 28.1948 93.5198 27.8577 94.0546 27.4665C94.5892 27.0772 95.0801 26.6453 95.4929 26.1846C95.9005 25.72 96.2286 25.2239 96.3737 24.6837C96.4141 24.5537 96.443 24.4025 96.4595 24.2792L96.4749 24.0555C96.4785 23.983 96.4801 23.9099 96.4767 23.8359C96.4641 23.5403 96.4083 23.2315 96.3163 22.9121L96.3117 22.8962C96.2859 22.8055 96.2911 22.7084 96.3266 22.6212C96.362 22.5341 96.4254 22.4623 96.5061 22.4181C96.5868 22.3739 96.6797 22.36 96.7692 22.3788C96.8586 22.3975 96.939 22.4477 96.9968 22.5209C97.2535 22.8456 97.4449 23.2202 97.5598 23.6226C97.5902 23.7262 97.615 23.8321 97.6362 23.9395C97.6574 24.0396 97.6687 24.1819 97.6776 24.2572C97.6942 24.4956 97.6905 24.7059 97.6675 24.9309C97.5586 25.8217 97.1333 26.6088 96.6175 27.2186C96.1013 27.8392 95.4892 28.3134 94.8658 28.7274C94.2483 29.1337 93.6016 29.4901 92.9313 29.7936C91.6084 30.3977 90.244 30.8394 88.8652 31.1772C87.4913 31.5135 86.0957 31.7461 84.6894 31.8734C84.6692 31.8753 84.6488 31.8731 84.6295 31.8669C84.6101 31.8607 84.5921 31.8506 84.5766 31.8371C84.561 31.8237 84.5481 31.8072 84.5387 31.7887C84.5293 31.7701 84.5235 31.7497 84.5216 31.7288C84.5186 31.6926 84.5276 31.6564 84.547 31.6262C84.5664 31.5959 84.5952 31.5734 84.6286 31.5623ZM51.1124 28.6632C51.2559 29.1297 51.5059 29.4609 51.8475 29.7519C52.1854 30.0405 52.601 30.2652 53.0401 30.4609C53.927 30.8422 54.9077 31.1044 55.9016 31.3253C56.8971 31.556 57.9186 31.7199 58.9468 31.8617L62.0524 32.2548C62.0902 32.2599 62.1248 32.2792 62.1495 32.3092C62.1743 32.3391 62.1876 32.3775 62.1867 32.4169C62.1858 32.4564 62.1709 32.4941 62.1448 32.5228C62.1187 32.5515 62.0833 32.5692 62.0454 32.5725C60.9969 32.6587 59.945 32.6917 58.8901 32.672C57.8349 32.6561 56.7759 32.5941 55.7121 32.4569C54.6529 32.2999 53.5811 32.066 52.558 31.5598C52.0493 31.3078 51.5488 30.976 51.136 30.5082C50.9251 30.2712 50.7539 29.9993 50.6297 29.7036C50.5676 29.5546 50.5205 29.3993 50.489 29.2403C50.458 29.0877 50.4434 28.932 50.4454 28.776L50.446 28.7582C50.4492 28.6752 50.4805 28.5959 50.5344 28.5344C50.5883 28.4728 50.6613 28.4329 50.7408 28.4215C50.8203 28.4102 50.9011 28.4282 50.969 28.4724C51.0369 28.5166 51.0877 28.5841 51.1124 28.6632ZM65.3859 13.5021C63.7187 13.7853 62.0586 14.1118 60.4072 14.4811C59.5853 14.6689 58.7693 14.878 57.9603 15.104C57.1521 15.3237 56.3506 15.5691 55.5569 15.8396C53.9736 16.371 52.4338 17.0189 51.0039 17.8143C49.5825 18.6141 48.2509 19.5703 47.3055 20.8256L47.2993 20.8335C47.1926 20.975 47.036 21.0668 46.8641 21.0887C46.6921 21.1106 46.5187 21.0609 46.3821 20.9504C46.2559 20.8475 46.1704 20.7002 46.142 20.5364C46.1136 20.3726 46.1441 20.2037 46.2278 20.0616C46.717 19.2395 47.3579 18.5372 48.0571 17.9452C48.759 17.3532 49.519 16.8603 50.3034 16.4405C51.8748 15.5994 53.5351 15.0356 55.2012 14.579C56.0348 14.3593 56.8749 14.1668 57.7202 14.0016C58.5641 13.8418 59.4111 13.7108 60.2587 13.5967C61.9528 13.3654 63.6557 13.237 65.3559 13.1862C65.3966 13.1848 65.4362 13.2002 65.466 13.2291C65.4957 13.2579 65.5133 13.2978 65.5147 13.34C65.5157 13.3785 65.5032 13.4162 65.4795 13.4459C65.4558 13.4757 65.4226 13.4956 65.3859 13.5021Z" fill="#00FFFF"/>
<path d="M57.8579 62.2314C58.416 62.3013 58.5445 65.5305 58.3179 66.5214C58.0912 67.5122 53.9224 75.525 53.1045 81.245C52.2867 86.965 53.5133 93.7972 54.1267 95.2272C54.74 96.6572 51.2133 98.4711 51.2133 98.4711C51.2133 98.4711 46.9037 90.8126 48.2172 82.3922C49.2967 75.4719 53.7721 68.4074 54.6633 66.8522C55.7192 65.0097 57.2764 62.1586 57.8579 62.2314Z" fill="url(#paint57_linear_206_600)"/>
<path d="M50.2001 80.1525C49.6831 80.146 49.1663 80.1789 48.6539 80.251C48.4769 80.9577 48.3311 81.6723 48.2169 82.3928C48.1737 82.6715 48.1364 82.9511 48.105 83.2314C48.2806 83.1591 48.4588 83.0936 48.6392 83.035C49.173 82.8636 49.7222 82.7486 50.2783 82.6918C51.2213 82.5971 52.1484 82.7033 52.9117 83.0887C52.954 82.472 53.0183 81.8571 53.1043 81.2453C53.126 81.0928 53.1515 80.9377 53.1779 80.782C52.9352 80.6685 52.6859 80.5711 52.4314 80.4903C51.6911 80.2611 50.9383 80.1639 50.2001 80.1525Z" fill="url(#paint58_linear_206_600)"/>
<path d="M49.868 95.4681C50.577 97.3379 51.2133 98.4714 51.2133 98.4714C51.2133 98.4714 54.74 96.6575 54.1267 95.2275C53.9706 94.8637 53.7749 94.149 53.5836 93.1934C52.0616 93.4982 50.6718 94.5958 49.868 95.4681Z" fill="url(#paint59_linear_206_600)"/>
<path d="M51.9871 96.1033C52.9037 95.1773 55.3533 93.3075 59.0717 96.2867C62.79 99.2658 64.745 102.841 63.7867 105.86C62.8283 108.879 59.3866 111.402 56.9633 110.269C54.0755 108.918 50.6512 103.119 50.6383 99.385C50.6322 97.5838 51.7104 96.3829 51.9871 96.1033Z" fill="url(#paint60_linear_206_600)"/>
<path d="M57.6788 97.7697C56.9376 98.167 54.395 101.504 54.3567 102.775C54.3239 103.86 55.1786 104.711 55.8173 104.552C56.4561 104.393 58.88 100.696 59.9025 99.9678C60.5428 99.5115 57.6788 97.7697 57.6788 97.7697Z" fill="url(#paint61_linear_206_600)"/>
<path d="M64.3043 100.517C64.0934 100.855 63.9593 103.079 64.362 103.397C64.7646 103.715 65.8628 102.874 66.777 102.682C67.7865 102.47 68.6749 102.507 68.943 102.237C69.211 101.967 69.3444 100.108 67.9647 99.6672C66.585 99.2264 64.5788 100.077 64.3043 100.517Z" fill="url(#paint62_linear_206_600)"/>
<path d="M64.4193 107.469C65.0345 107.273 67.7396 110.056 67.7543 110.726C67.7737 111.6 66.1637 113.871 64.8091 113.871C63.4546 113.871 61.6977 111.421 61.621 110.686C61.5658 110.16 64.0869 107.574 64.4193 107.469Z" fill="url(#paint63_linear_206_600)"/>
<path d="M56.8866 112.255C57.0342 111.901 59.6466 111.063 60.03 111.421C60.4133 111.778 62.2364 113.665 62.1383 114.479C62.0616 115.115 60.8157 116.327 59.8573 116.009C58.899 115.691 56.5226 113.129 56.8866 112.255Z" fill="url(#paint64_linear_206_600)"/>
<path d="M68.0088 99.685C68.3452 100.383 68.2299 101.252 68.0533 101.43C67.7853 101.7 66.8969 101.663 65.8873 101.875C65.2961 101.999 64.6287 102.393 64.1215 102.571C64.1531 102.965 64.2267 103.29 64.362 103.397C64.7646 103.714 65.8628 102.874 66.777 102.682C67.7865 102.47 68.6749 102.507 68.9429 102.237C69.2076 101.97 69.3385 100.153 68.0088 99.685Z" fill="url(#paint65_linear_206_600)"/>
<path d="M64.2749 108.387C64.8425 108.207 67.1836 110.557 67.5553 111.449C67.6832 111.169 67.7583 110.914 67.754 110.726C67.7393 110.056 65.0342 107.273 64.419 107.469C64.0869 107.574 61.5658 110.16 61.6207 110.686C61.6308 110.782 61.6707 110.908 61.7332 111.053C62.3723 110.114 64.0112 108.471 64.2749 108.387Z" fill="url(#paint66_linear_206_600)"/>
<path d="M60.03 111.421C59.6466 111.063 57.0341 111.901 56.8866 112.255C56.8296 112.392 56.8459 112.572 56.9069 112.776C57.7471 112.427 59.133 112.081 59.4044 112.334C59.7877 112.692 61.6108 114.579 61.5127 115.393C61.5103 115.414 61.5032 115.437 61.4983 115.459C61.8522 115.138 62.1052 114.755 62.1386 114.479C62.2364 113.665 60.4133 111.778 60.03 111.421Z" fill="url(#paint67_linear_206_600)"/>
<path d="M59.0716 96.2867C56.4466 94.1833 54.4551 94.4976 53.1876 95.1897C54.6378 95.3333 61.5937 100.657 63.5079 106.575C63.6152 106.341 63.7097 106.102 63.7866 105.86C64.745 102.841 62.79 99.2658 59.0716 96.2867Z" fill="url(#paint68_linear_206_600)"/>
<defs>
<linearGradient id="paint0_linear_206_600" x1="80.2139" y1="100.969" x2="233.558" y2="248.952" gradientUnits="userSpaceOnUse">
<stop stop-color="#0800FF"/>
<stop offset="1" stop-color="#001AA5"/>
</linearGradient>
<linearGradient id="paint1_linear_206_600" x1="185.329" y1="245.219" x2="185.329" y2="54.9755" gradientUnits="userSpaceOnUse">
<stop stop-color="#FF57BD"/>
<stop offset="1" stop-color="#A281FF"/>
</linearGradient>
<linearGradient id="paint2_linear_206_600" x1="162.758" y1="249.244" x2="162.758" y2="59.0008" gradientUnits="userSpaceOnUse">
<stop stop-color="#FF57BD"/>
<stop offset="1" stop-color="#A281FF"/>
</linearGradient>
<linearGradient id="paint3_linear_206_600" x1="140.188" y1="253.269" x2="140.188" y2="63.0258" gradientUnits="userSpaceOnUse">
<stop stop-color="#FF57BD"/>
<stop offset="1" stop-color="#A281FF"/>
</linearGradient>
<linearGradient id="paint4_linear_206_600" x1="117.617" y1="257.294" x2="117.617" y2="67.0511" gradientUnits="userSpaceOnUse">
<stop stop-color="#FF57BD"/>
<stop offset="1" stop-color="#A281FF"/>
</linearGradient>
<linearGradient id="paint5_linear_206_600" x1="95.0468" y1="261.319" x2="95.0468" y2="71.0764" gradientUnits="userSpaceOnUse">
<stop stop-color="#FF57BD"/>
<stop offset="1" stop-color="#A281FF"/>
</linearGradient>
<linearGradient id="paint6_linear_206_600" x1="72.4758" y1="265.344" x2="72.4758" y2="75.1014" gradientUnits="userSpaceOnUse">
<stop stop-color="#FF57BD"/>
<stop offset="1" stop-color="#A281FF"/>
</linearGradient>
<linearGradient id="paint7_linear_206_600" x1="226.78" y1="133.308" x2="230.767" y2="133.308" gradientUnits="userSpaceOnUse">
<stop stop-color="#FF57BD"/>
<stop offset="1" stop-color="#FE6A77"/>
</linearGradient>
<linearGradient id="paint8_linear_206_600" x1="213.057" y1="132.911" x2="217.043" y2="132.911" gradientUnits="userSpaceOnUse">
<stop stop-color="#FF57BD"/>
<stop offset="1" stop-color="#FE6A77"/>
</linearGradient>
<linearGradient id="paint9_linear_206_600" x1="39.1831" y1="20.2004" x2="120.271" y2="76.6435" gradientUnits="userSpaceOnUse">
<stop stop-color="#1AA9E8"/>
<stop offset="1" stop-color="#5A55F8"/>
</linearGradient>
<linearGradient id="paint10_linear_206_600" x1="128.666" y1="238.744" x2="186.522" y2="238.744" gradientUnits="userSpaceOnUse">
<stop stop-color="#FFE2A8"/>
<stop offset="0.418" stop-color="#97E2C4"/>
<stop offset="1" stop-color="#00E2EC"/>
</linearGradient>
<linearGradient id="paint11_linear_206_600" x1="96.1835" y1="227.987" x2="154.04" y2="227.987" gradientUnits="userSpaceOnUse">
<stop stop-color="#FFE2A8"/>
<stop offset="0.418" stop-color="#97E2C4"/>
<stop offset="1" stop-color="#00E2EC"/>
</linearGradient>
<linearGradient id="paint12_linear_206_600" x1="101.507" y1="186.426" x2="218.551" y2="186.426" gradientUnits="userSpaceOnUse">
<stop stop-color="#994574"/>
<stop offset="1" stop-color="#43256F"/>
</linearGradient>
<linearGradient id="paint13_linear_206_600" x1="27.7466" y1="225.722" x2="54.74" y2="225.722" gradientUnits="userSpaceOnUse">
<stop stop-color="#F4BEA3"/>
<stop offset="1" stop-color="#E8878E"/>
</linearGradient>
<linearGradient id="paint14_linear_206_600" x1="25.3052" y1="222.123" x2="36.6632" y2="222.123" gradientUnits="userSpaceOnUse">
<stop stop-color="#FE6A77"/>
<stop offset="1" stop-color="#C91C91"/>
</linearGradient>
<linearGradient id="paint15_linear_206_600" x1="24.7541" y1="225.61" x2="35.6773" y2="225.61" gradientUnits="userSpaceOnUse">
<stop stop-color="#994574"/>
<stop offset="1" stop-color="#43256F"/>
</linearGradient>
<linearGradient id="paint16_linear_206_600" x1="45.284" y1="203.478" x2="145.846" y2="203.478" gradientUnits="userSpaceOnUse">
<stop stop-color="#05C5DA"/>
<stop offset="1" stop-color="#5860C4"/>
</linearGradient>
<linearGradient id="paint17_linear_206_600" x1="129.123" y1="144.195" x2="154.223" y2="168.417" gradientUnits="userSpaceOnUse">
<stop stop-color="#F9A144"/>
<stop offset="1" stop-color="#FDE1A7"/>
</linearGradient>
<linearGradient id="paint18_linear_206_600" x1="92.7667" y1="165.699" x2="112.008" y2="165.699" gradientUnits="userSpaceOnUse">
<stop stop-color="#F4BEA3"/>
<stop offset="1" stop-color="#E8878E"/>
</linearGradient>
<linearGradient id="paint19_linear_206_600" x1="105.84" y1="236.884" x2="124.403" y2="236.884" gradientUnits="userSpaceOnUse">
<stop stop-color="#F4BEA3"/>
<stop offset="1" stop-color="#E8878E"/>
</linearGradient>
<linearGradient id="paint20_linear_206_600" x1="103.604" y1="244.407" x2="116.418" y2="244.407" gradientUnits="userSpaceOnUse">
<stop stop-color="#FE6A77"/>
<stop offset="1" stop-color="#C91C91"/>
</linearGradient>
<linearGradient id="paint21_linear_206_600" x1="103.604" y1="245.024" x2="126.023" y2="245.024" gradientUnits="userSpaceOnUse">
<stop stop-color="#994574"/>
<stop offset="1" stop-color="#43256F"/>
</linearGradient>
<linearGradient id="paint22_linear_206_600" x1="80.7181" y1="196.461" x2="153.582" y2="196.461" gradientUnits="userSpaceOnUse">
<stop stop-color="#00E2EC"/>
<stop offset="1" stop-color="#0090B2"/>
</linearGradient>
<linearGradient id="paint23_linear_206_600" x1="169.783" y1="120.831" x2="176.947" y2="120.831" gradientUnits="userSpaceOnUse">
<stop stop-color="#C5188E"/>
<stop offset="1" stop-color="#9F36AD"/>
</linearGradient>
<linearGradient id="paint24_linear_206_600" x1="169.996" y1="145.346" x2="182.608" y2="145.346" gradientUnits="userSpaceOnUse">
<stop stop-color="#E8878E"/>
<stop offset="1" stop-color="#E8878E"/>
</linearGradient>
<linearGradient id="paint25_linear_206_600" x1="166.917" y1="131.159" x2="185.863" y2="131.159" gradientUnits="userSpaceOnUse">
<stop stop-color="#F4BEA3"/>
<stop offset="1" stop-color="#E8878E"/>
</linearGradient>
<linearGradient id="paint26_linear_206_600" x1="168.768" y1="129.779" x2="175.26" y2="129.779" gradientUnits="userSpaceOnUse">
<stop stop-color="#FF57BD"/>
<stop offset="1" stop-color="#EFA69A"/>
</linearGradient>
<linearGradient id="paint27_linear_206_600" x1="172.687" y1="123.637" x2="190.906" y2="123.637" gradientUnits="userSpaceOnUse">
<stop stop-color="#CB2090"/>
<stop offset="1" stop-color="#43256F"/>
</linearGradient>
<linearGradient id="paint28_linear_206_600" x1="131.794" y1="146.433" x2="140.049" y2="146.433" gradientUnits="userSpaceOnUse">
<stop stop-color="#994574"/>
<stop offset="1" stop-color="#43256F"/>
</linearGradient>
<linearGradient id="paint29_linear_206_600" x1="130.778" y1="153.427" x2="143.233" y2="153.427" gradientUnits="userSpaceOnUse">
<stop stop-color="#F4BEA3"/>
<stop offset="1" stop-color="#E8878E"/>
</linearGradient>
<linearGradient id="paint30_linear_206_600" x1="135.556" y1="180.511" x2="195.33" y2="180.511" gradientUnits="userSpaceOnUse">
<stop stop-color="#FDE1A7"/>
<stop offset="1" stop-color="#F9A144"/>
</linearGradient>
<linearGradient id="paint31_linear_206_600" x1="161.766" y1="206.524" x2="191.252" y2="206.524" gradientUnits="userSpaceOnUse">
<stop stop-color="#FF57BD"/>
<stop offset="1" stop-color="#FE6A77"/>
</linearGradient>
<linearGradient id="paint32_linear_206_600" x1="164.182" y1="214.395" x2="203.608" y2="214.395" gradientUnits="userSpaceOnUse">
<stop stop-color="#FFE2A8"/>
<stop offset="0.105" stop-color="#FAE2A9"/>
<stop offset="0.228" stop-color="#ECE2AD"/>
<stop offset="0.362" stop-color="#D4E2B3"/>
<stop offset="0.502" stop-color="#B3E2BC"/>
<stop offset="0.647" stop-color="#88E2C8"/>
<stop offset="0.797" stop-color="#54E2D6"/>
<stop offset="0.948" stop-color="#17E2E6"/>
<stop offset="1" stop-color="#00E2EC"/>
</linearGradient>
<linearGradient id="paint33_linear_206_600" x1="222.539" y1="223.25" x2="242.3" y2="242.32" gradientUnits="userSpaceOnUse">
<stop stop-color="#5A55F8"/>
<stop offset="1" stop-color="#8C6AE2"/>
</linearGradient>
<linearGradient id="paint34_linear_206_600" x1="243.613" y1="220.432" x2="229.891" y2="233.674" gradientUnits="userSpaceOnUse">
<stop stop-color="#994574"/>
<stop offset="1" stop-color="#43256F"/>
</linearGradient>
<linearGradient id="paint35_linear_206_600" x1="243.208" y1="165.161" x2="236.379" y2="165.161" gradientUnits="userSpaceOnUse">
<stop stop-color="#F9A144"/>
<stop offset="1" stop-color="#FDE1A7"/>
</linearGradient>
<linearGradient id="paint36_linear_206_600" x1="236.639" y1="215.276" x2="201.307" y2="215.276" gradientUnits="userSpaceOnUse">
<stop stop-color="#0090B2"/>
<stop offset="1" stop-color="#00E2EC"/>
</linearGradient>
<linearGradient id="paint37_linear_206_600" x1="232.321" y1="220.786" x2="221.056" y2="220.786" gradientUnits="userSpaceOnUse">
<stop stop-color="#F9A144"/>
<stop offset="1" stop-color="#FDE1A7"/>
</linearGradient>
<linearGradient id="paint38_linear_206_600" x1="257.007" y1="205.364" x2="240.923" y2="205.364" gradientUnits="userSpaceOnUse">
<stop stop-color="#0090B2"/>
<stop offset="1" stop-color="#00E2EC"/>
</linearGradient>
<linearGradient id="paint39_linear_206_600" x1="240.473" y1="195.466" x2="223.976" y2="195.466" gradientUnits="userSpaceOnUse">
<stop stop-color="#F9A144"/>
<stop offset="1" stop-color="#FDE1A7"/>
</linearGradient>
<linearGradient id="paint40_linear_206_600" x1="252.837" y1="200.031" x2="224.577" y2="200.031" gradientUnits="userSpaceOnUse">
<stop stop-color="#FE6A77"/>
<stop offset="1" stop-color="#FF57BD"/>
</linearGradient>
<linearGradient id="paint41_linear_206_600" x1="219.606" y1="216.049" x2="212.663" y2="216.049" gradientUnits="userSpaceOnUse">
<stop stop-color="#0090B2"/>
<stop offset="1" stop-color="#00E2EC"/>
</linearGradient>
<linearGradient id="paint42_linear_206_600" x1="97.4915" y1="90.0382" x2="97.4915" y2="57.4812" gradientUnits="userSpaceOnUse">
<stop stop-color="#994574"/>
<stop offset="1" stop-color="#43256F"/>
</linearGradient>
<linearGradient id="paint43_linear_206_600" x1="99.4805" y1="73.8665" x2="104.261" y2="73.8665" gradientUnits="userSpaceOnUse">
<stop stop-color="#FDE1A7"/>
<stop offset="1" stop-color="#F9A144"/>
</linearGradient>
<linearGradient id="paint44_linear_206_600" x1="101.96" y1="87.8169" x2="106.1" y2="87.8169" gradientUnits="userSpaceOnUse">
<stop stop-color="#FDE1A7"/>
<stop offset="1" stop-color="#F9A144"/>
</linearGradient>
<linearGradient id="paint45_linear_206_600" x1="94.8618" y1="95.6794" x2="106.826" y2="95.6794" gradientUnits="userSpaceOnUse">
<stop stop-color="#994574"/>
<stop offset="1" stop-color="#43256F"/>
</linearGradient>
<linearGradient id="paint46_linear_206_600" x1="94.8618" y1="94.5052" x2="102.851" y2="94.5052" gradientUnits="userSpaceOnUse">
<stop stop-color="#C7A0F6"/>
<stop offset="1" stop-color="#FF57BD"/>
</linearGradient>
<linearGradient id="paint47_linear_206_600" x1="72.0284" y1="79.3018" x2="72.0284" y2="34.5377" gradientUnits="userSpaceOnUse">
<stop stop-color="#FE6A77"/>
<stop offset="1" stop-color="#FF57BD"/>
</linearGradient>
<linearGradient id="paint48_linear_206_600" x1="75.8405" y1="57.1469" x2="85.4481" y2="57.1469" gradientUnits="userSpaceOnUse">
<stop stop-color="#FDE1A7"/>
<stop offset="1" stop-color="#F9A144"/>
</linearGradient>
<linearGradient id="paint49_linear_206_600" x1="51.2078" y1="46.1137" x2="75.9877" y2="70.0271" gradientUnits="userSpaceOnUse">
<stop stop-color="#C7A0F6"/>
<stop offset="1" stop-color="#FF57BD"/>
</linearGradient>
<linearGradient id="paint50_linear_206_600" x1="60.9684" y1="37.9849" x2="79.3329" y2="37.9849" gradientUnits="userSpaceOnUse">
<stop stop-color="#FDE1A7"/>
<stop offset="1" stop-color="#F9A144"/>
</linearGradient>
<linearGradient id="paint51_linear_206_600" x1="59.8868" y1="62.7958" x2="64.7628" y2="62.7958" gradientUnits="userSpaceOnUse">
<stop stop-color="#FDE1A7"/>
<stop offset="1" stop-color="#F9A144"/>
</linearGradient>
<linearGradient id="paint52_linear_206_600" x1="62.9185" y1="59.1016" x2="71.5766" y2="59.1016" gradientUnits="userSpaceOnUse">
<stop stop-color="#FDE1A7"/>
<stop offset="1" stop-color="#F9A144"/>
</linearGradient>
<linearGradient id="paint53_linear_206_600" x1="61.0515" y1="37.2753" x2="78.8974" y2="37.2753" gradientUnits="userSpaceOnUse">
<stop stop-color="#C7A0F6"/>
<stop offset="1" stop-color="#FF57BD"/>
</linearGradient>
<linearGradient id="paint54_linear_206_600" x1="49.0618" y1="67.9755" x2="94.7468" y2="67.9755" gradientUnits="userSpaceOnUse">
<stop stop-color="#FDE1A7"/>
<stop offset="1" stop-color="#F9A144"/>
</linearGradient>
<linearGradient id="paint55_linear_206_600" x1="70.9933" y1="29.288" x2="72.5779" y2="29.288" gradientUnits="userSpaceOnUse">
<stop stop-color="#FDE1A7"/>
<stop offset="1" stop-color="#F9A144"/>
</linearGradient>
<linearGradient id="paint56_linear_206_600" x1="62.445" y1="14.3528" x2="81.8705" y2="33.0991" gradientUnits="userSpaceOnUse">
<stop stop-color="#9F36AD"/>
<stop offset="1" stop-color="#43256F"/>
</linearGradient>
<linearGradient id="paint57_linear_206_600" x1="53.1959" y1="98.4714" x2="53.1959" y2="62.2301" gradientUnits="userSpaceOnUse">
<stop stop-color="#994574"/>
<stop offset="1" stop-color="#43256F"/>
</linearGradient>
<linearGradient id="paint58_linear_206_600" x1="48.1053" y1="81.6911" x2="53.1782" y2="81.6911" gradientUnits="userSpaceOnUse">
<stop stop-color="#FDE1A7"/>
<stop offset="1" stop-color="#F9A144"/>
</linearGradient>
<linearGradient id="paint59_linear_206_600" x1="49.868" y1="95.8322" x2="54.1981" y2="95.8322" gradientUnits="userSpaceOnUse">
<stop stop-color="#FDE1A7"/>
<stop offset="1" stop-color="#F9A144"/>
</linearGradient>
<linearGradient id="paint60_linear_206_600" x1="50.6383" y1="102.607" x2="64.0286" y2="102.607" gradientUnits="userSpaceOnUse">
<stop stop-color="#FF57BD"/>
<stop offset="1" stop-color="#FE6A77"/>
</linearGradient>
<linearGradient id="paint61_linear_206_600" x1="54.3558" y1="101.17" x2="59.9957" y2="101.17" gradientUnits="userSpaceOnUse">
<stop stop-color="#FDE1A7"/>
<stop offset="1" stop-color="#F9A144"/>
</linearGradient>
<linearGradient id="paint62_linear_206_600" x1="64.1019" y1="101.506" x2="69.1156" y2="101.506" gradientUnits="userSpaceOnUse">
<stop stop-color="#FF57BD"/>
<stop offset="1" stop-color="#FE6A77"/>
</linearGradient>
<linearGradient id="paint63_linear_206_600" x1="61.6201" y1="110.665" x2="67.7543" y2="110.665" gradientUnits="userSpaceOnUse">
<stop stop-color="#FF57BD"/>
<stop offset="1" stop-color="#FE6A77"/>
</linearGradient>
<linearGradient id="paint64_linear_206_600" x1="56.8489" y1="113.697" x2="62.1423" y2="113.697" gradientUnits="userSpaceOnUse">
<stop stop-color="#FF57BD"/>
<stop offset="1" stop-color="#FE6A77"/>
</linearGradient>
<linearGradient id="paint65_linear_206_600" x1="64.1212" y1="101.577" x2="69.115" y2="101.577" gradientUnits="userSpaceOnUse">
<stop stop-color="#43256F"/>
<stop offset="1" stop-color="#994574"/>
</linearGradient>
<linearGradient id="paint66_linear_206_600" x1="61.6201" y1="109.454" x2="67.7543" y2="109.454" gradientUnits="userSpaceOnUse">
<stop stop-color="#43256F"/>
<stop offset="1" stop-color="#994574"/>
</linearGradient>
<linearGradient id="paint67_linear_206_600" x1="56.8514" y1="113.396" x2="62.1423" y2="113.396" gradientUnits="userSpaceOnUse">
<stop stop-color="#43256F"/>
<stop offset="1" stop-color="#994574"/>
</linearGradient>
<linearGradient id="paint68_linear_206_600" x1="53.1876" y1="100.622" x2="64.0286" y2="100.622" gradientUnits="userSpaceOnUse">
<stop stop-color="#43256F"/>
<stop offset="1" stop-color="#994574"/>
</linearGradient>
</defs>
</svg>
