<svg width="20" height="20" viewBox="0 0 20 20" fill="none" xmlns="http://www.w3.org/2000/svg">
<g clip-path="url(#clip0_1007_173)">
<path d="M5.61542 8.36609C5.95959 8.83297 6.45086 9.18426 7.02247 9.35299C7.24676 9.00367 7.4989 8.67386 7.7751 8.36609H5.61542Z" fill="white"/>
<path d="M6.45698 10.4068C5.47656 10.0489 4.68435 9.30859 4.25713 8.3661H3.0686V7.18809H3.93557C3.92693 7.10893 3.91979 7.0293 3.91594 6.94872C3.90628 6.74591 3.91248 6.54498 3.93373 6.34715H3.0686V5.16914H4.25764C4.43497 4.78252 4.67815 4.42295 4.98266 4.10359C5.72347 3.3267 6.76413 2.8811 7.83776 2.8811H8.52984V4.0591H7.83776C7.0847 4.0591 6.35477 4.37163 5.83515 4.91654C5.75834 4.99711 5.68782 5.0817 5.62232 5.16914H7.78864V6.34715H5.12202C5.09391 6.52554 5.08382 6.70805 5.09261 6.89277C5.09736 6.99282 5.10816 7.09122 5.12344 7.18809H7.78864V8.35079C9.18847 6.79951 11.2102 5.82007 13.4569 5.80951C12.9925 2.53036 10.1675 0 6.7622 0C3.03353 0 0 3.03353 0 6.7622C0 10.1675 2.53032 12.9925 5.80947 13.4569C5.81457 12.373 6.04538 11.3415 6.45698 10.4068Z" fill="white"/>
<path d="M11.9463 11.979V12.0887C11.9463 12.4897 12.2725 12.8159 12.6734 12.8159H12.8311V11.2518H12.6734C12.2725 11.2518 11.9463 11.578 11.9463 11.979Z" fill="#FFD600"/>
<path d="M14.0226 15.4482C14.4236 15.4482 14.7499 15.122 14.7499 14.721C14.7499 14.3201 14.4236 13.9938 14.0226 13.9938H14.0091V15.4482L14.0226 15.4482Z" fill="#FFD600"/>
<path d="M13.4935 6.98706C9.90579 6.98706 6.987 9.90585 6.987 13.4936C6.987 17.0812 9.90579 20 13.4935 20C17.0812 20 20 17.0812 20 13.4936C20 9.90585 17.0812 6.98706 13.4935 6.98706ZM15.9279 11.2518H14.0091V12.8159H14.0227C15.0732 12.8159 15.9279 13.6706 15.9279 14.7211C15.9279 15.7716 15.0732 16.6263 14.0227 16.6263H14.0091V17.8328H12.8311V16.6263H10.7683V15.4483H12.8311V13.9939H12.6734C11.6229 13.9939 10.7683 13.1393 10.7683 12.0887V11.979C10.7683 10.9285 11.6229 10.0738 12.6734 10.0738H12.8311V8.86728H14.0091V10.0738H15.9279V11.2518Z" fill="#FFD600"/>
<path d="M15.5576 4.07119L14.8249 3.06973C16.5887 3.63545 17.9056 5.29856 17.9056 7.20077H19.0836C19.0836 5.74251 18.4954 4.36012 17.4272 3.30816C16.8043 2.69477 16.0688 2.2432 15.2724 1.97434L16.2308 1.44392L15.6604 0.413239L12.6433 2.08299L14.6069 4.76677L15.5576 4.07119Z" fill="white"/>
<path d="M6.6751 17.0346L5.46423 15.3796L4.51353 16.0752L5.24626 17.0767C3.48242 16.511 2.16553 14.8479 2.16553 12.9456H0.987518C0.987518 14.4039 1.57578 15.7863 2.64396 16.8383C3.26681 17.4517 4.00232 17.9032 4.79873 18.1721L3.84034 18.7025L4.41077 19.7331L7.35108 18.1058L7.42785 18.0634L6.6751 17.0346Z" fill="white"/>
</g>
<defs>
<clipPath id="clip0_1007_173">
<rect width="20" height="20" fill="white"/>
</clipPath>
</defs>
</svg>
