<svg width="20" height="20" viewBox="0 0 20 20" fill="none" xmlns="http://www.w3.org/2000/svg">
<path d="M18.1819 4.63104C18.7323 4.09426 19.0219 3.45422 19.0418 2.72859C19.0586 2.17574 18.9019 1.68062 18.5763 1.25739C18.5026 1.16297 18.4227 1.08061 18.3195 0.977346C18.2412 0.899802 18.1627 0.822927 18.0723 0.753282C17.6507 0.428774 17.1467 0.271156 16.6019 0.287887C15.8771 0.308646 15.237 0.598334 14.6994 1.14784L10.7898 5.14796L8.02984 4.69436L8.03868 4.6807C8.20823 4.40467 8.26033 4.08231 8.18587 3.77268C8.11475 3.47844 7.93636 3.23199 7.68269 3.07839C7.50671 2.97285 7.29629 2.91928 7.07721 2.93281C6.67956 2.95276 6.30992 3.17924 6.11319 3.52074L5.64831 4.30314L2.92595 3.85595C2.63479 3.81109 2.366 3.896 2.17475 4.10318L2.07873 4.20644C1.73319 4.58077 1.38914 4.95442 1.05711 5.33599C0.889168 5.52965 0.81631 5.78396 0.857961 6.03442C0.899611 6.28313 1.04841 6.49834 1.26672 6.62479L6.54021 9.24484C5.89855 9.89921 5.26426 10.5497 4.63615 11.1952L2.34569 11.0312C2.05613 11.0104 1.82965 11.1079 1.63292 11.3167C1.2985 11.6703 0.965687 12.0208 0.632086 12.3655C0.498427 12.5023 0.356058 12.6752 0.310523 12.9239C0.306505 12.9438 0.305702 13.0326 0.305702 13.0527C0.306506 13.0783 0.310523 13.1711 0.316952 13.1959C0.416998 13.5967 0.72101 13.7623 0.940919 13.8527C1.62972 14.1335 2.32092 14.4182 3.01373 14.7039L4.15548 15.1752L4.63387 16.3344C4.91713 17.0215 5.19945 17.7055 5.47871 18.3895C5.5675 18.6087 5.73237 18.9127 6.20917 19.0231L6.40752 19.0191C6.65394 18.9735 6.82673 18.8318 6.96425 18.6983C7.30978 18.3631 7.65946 18.0303 8.01223 17.6975C8.22343 17.4999 8.31946 17.2599 8.29857 16.9839L8.13531 14.6927C8.78019 14.0663 9.42973 13.4319 10.0857 12.7886L12.6585 17.9733L12.7064 18.0621C12.8329 18.2805 13.0489 18.4293 13.2984 18.4708C13.5465 18.5101 13.8016 18.4396 13.9952 18.2709C14.3808 17.9349 14.7593 17.5861 15.1401 17.2358L15.2281 17.1542C15.4344 16.9638 15.5224 16.6966 15.4745 16.403L15.0281 13.6806L15.8073 13.2182C16.1537 13.019 16.3801 12.6494 16.3985 12.2518C16.4097 12.0309 16.3592 11.8205 16.2521 11.6445C16.0993 11.3925 15.852 11.2141 15.5585 11.143C15.2488 11.0685 14.9273 11.1206 14.652 11.2893L14.6369 11.2982L14.1841 8.53817L18.1819 4.63104ZM6.66596 3.84315C6.75717 3.68472 6.92672 3.58079 7.10914 3.57195C7.17557 3.56873 7.26918 3.57516 7.35235 3.62552C7.4587 3.69034 7.53396 3.79507 7.56517 3.9223C7.59878 4.06547 7.5732 4.21507 7.49325 4.34632L7.34927 4.5823L6.32605 4.41435L6.66596 3.84315ZM14.7941 16.6863L14.7069 16.7678C14.3302 17.1142 13.9565 17.459 13.5757 17.791C13.5093 17.8494 13.4374 17.847 13.4038 17.8414C13.343 17.831 13.2902 17.7951 13.2598 17.7422L13.2222 17.6693L10.507 12.1973C10.4799 12.1421 10.4062 11.9957 10.2254 11.9653C10.1191 11.947 9.9558 12.0197 9.88294 12.091C9.12934 12.8309 8.38132 13.5605 7.63897 14.2814C7.52781 14.3901 7.47892 14.5222 7.49098 14.6726L7.65892 17.0301C7.66455 17.099 7.65169 17.1566 7.57254 17.2309C7.21655 17.5669 6.86461 17.9021 6.51812 18.238C6.41647 18.3365 6.35486 18.3772 6.35325 18.3844L6.28923 18.3925C6.20285 18.3709 6.14204 18.326 6.06999 18.1476C5.79075 17.4628 5.50843 16.7773 5.22437 16.0893L4.69644 14.8077C4.66362 14.7286 4.60121 14.6654 4.52206 14.6333L3.25805 14.1125C2.56445 13.8262 1.87242 13.5405 1.18201 13.2597C1.00362 13.1876 0.958754 13.1268 0.939602 13.0396C0.951655 12.9732 0.991565 12.9124 1.09 12.8117C1.42603 12.4645 1.76207 12.1124 2.09794 11.7564C2.16356 11.6868 2.21553 11.6693 2.27392 11.6693C2.28195 11.6693 2.28986 11.6693 2.29789 11.6701L4.65891 11.8391C4.80529 11.8511 4.94217 11.7998 5.04932 11.6895C5.76932 10.9487 6.49978 10.2007 7.23974 9.4463C7.343 9.34077 7.38532 9.22546 7.36456 9.10465C7.34782 9.00381 7.2238 8.86947 7.13259 8.8238L1.6623 6.10868C1.6623 6.10868 1.58864 6.07105 1.58784 6.07105C1.53587 6.04065 1.49985 5.98868 1.4902 5.92868C1.48377 5.89265 1.48216 5.82234 1.53975 5.75591C1.86694 5.37997 2.20778 5.01112 2.5493 4.63988L2.64452 4.53662C2.67653 4.5014 2.72206 4.47019 2.82291 4.48707L5.72932 4.96467C5.75195 4.97029 5.77271 4.97511 5.79588 4.97592L10.7567 5.79034C10.9295 5.81913 11.0799 5.76637 11.2079 5.63592L15.1583 1.595C15.5815 1.16136 16.0599 0.943847 16.6215 0.927767C17.0399 0.911026 17.3807 1.02781 17.6823 1.26138C17.7503 1.31415 17.8095 1.37415 17.8879 1.45103C17.9511 1.51424 18.0143 1.57665 18.0703 1.64938C18.3031 1.95179 18.4158 2.30859 18.4039 2.71021C18.3872 3.27257 18.1687 3.75096 17.7359 4.17339L13.6967 8.12208C13.5638 8.25012 13.5119 8.40293 13.5415 8.57489L14.0799 11.8557C14.0807 11.8654 14.0823 11.8741 14.0847 11.8829L14.3559 13.5357C14.3567 13.5589 14.3607 13.5806 14.3671 13.6038L14.8439 16.5093C14.8598 16.6093 14.8294 16.6533 14.7942 16.6861L14.7941 16.6863ZM14.9853 11.8365C15.1142 11.7566 15.263 11.731 15.4077 11.7669C15.5342 11.7981 15.6405 11.8724 15.7045 11.9789C15.7541 12.0621 15.7613 12.1573 15.7581 12.2229C15.7493 12.4045 15.6453 12.5741 15.4829 12.6677L14.9157 13.0045L14.7477 11.9813L14.9853 11.8365Z" fill="#B1BBBF" stroke="#B1BBBF" stroke-width="0.5"/>
</svg>
