<svg width="21" height="22" viewBox="0 0 21 22" fill="none" xmlns="http://www.w3.org/2000/svg">
<path d="M19.8515 0H11.2578C10.0732 0 9.10938 0.963785 9.10938 2.14843V3.1383L7.90665 3.83271C7.41315 4.11854 7.2442 4.75263 7.52999 5.24616C7.62976 5.41847 7.77542 5.55695 7.95189 5.64758L9.10943 6.31587V10.7421C9.10943 11.9268 10.0732 12.8906 11.2579 12.8906H12.0312V15.9322C12.0312 16.0857 12.1131 16.2276 12.246 16.3043L13.6288 17.1026C13.6368 17.1072 13.6448 17.1116 13.6531 17.1156C13.6841 17.131 13.7088 17.1541 13.7264 17.1845C13.7747 17.268 13.7461 17.3752 13.6631 17.4233L12.246 18.2415C12.1131 18.3182 12.0312 18.4601 12.0312 18.6136V19.8515C12.0312 20.5623 11.4529 21.1406 10.7421 21.1406H2.14843C1.43764 21.1406 0.859372 20.5623 0.859372 19.8515V11.2578C0.859372 10.547 1.43764 9.96875 2.14843 9.96875H5.6719C5.90921 9.96875 6.10158 9.77638 6.10158 9.53907C6.10158 9.30175 5.90921 9.10938 5.6719 9.10938H2.14843C0.963785 9.10938 0 10.0732 0 11.2578V19.8515C0 21.0362 0.963785 22 2.14843 22H10.7421C11.9268 22 12.8906 21.0362 12.8906 19.8515V18.8617L14.0934 18.1672C14.5869 17.8814 14.7558 17.2473 14.47 16.7538C14.3702 16.5815 14.2246 16.443 14.048 16.3523L12.8906 15.6841V12.8906H19.8515C21.0362 12.8906 22 11.9268 22 10.7421V2.14843C22 0.963785 21.0362 0 19.8515 0ZM21.1406 10.7421C21.1406 11.4529 20.5624 12.0312 19.8516 12.0312H11.2579C10.5471 12.0312 9.9688 11.4529 9.9688 10.7421V6.06777C9.9688 5.91424 9.8869 5.7724 9.75395 5.69566L8.37123 4.89734C8.36323 4.89275 8.35511 4.88841 8.34686 4.88428C8.31584 4.86894 8.29126 4.84578 8.27369 4.81549C8.22535 4.73196 8.25392 4.62471 8.33685 4.57663L9.75395 3.75846C9.8869 3.68172 9.9688 3.53988 9.9688 3.38635V2.14843C9.9688 1.43764 10.5471 0.859372 11.2579 0.859372H19.8516C20.5624 0.859372 21.1406 1.43764 21.1406 2.14843V10.7421Z" fill="white"/>
<path d="M4.72655 14.0508V18.3477C4.72655 18.585 4.91892 18.7774 5.15623 18.7774C5.39355 18.7774 5.58592 18.585 5.58592 18.3477V16.6289H7.30467V18.3477C7.30467 18.585 7.49704 18.7774 7.73436 18.7774C7.97168 18.7774 8.16405 18.585 8.16405 18.3477V14.0508C8.16405 13.1031 7.39302 12.3321 6.4453 12.3321C5.49758 12.3321 4.72655 13.1031 4.72655 14.0508ZM5.58592 14.0508C5.58592 13.577 5.97144 13.1914 6.4453 13.1914C6.91916 13.1914 7.30467 13.577 7.30467 14.0508V15.7695H5.58597V14.0508H5.58592Z" fill="#FFD600"/>
<path d="M17.5563 5.80375H17.9799C18.2172 5.80375 18.4096 5.61137 18.4096 5.37406C18.4096 5.13674 18.2172 4.94437 17.9799 4.94437H16.0463V4.08203C16.0463 3.84471 15.854 3.65234 15.6166 3.65234C15.3793 3.65234 15.187 3.84471 15.187 4.08203V4.94437H13.2534C13.016 4.94437 12.8237 5.13674 12.8237 5.37406C12.8237 5.61137 13.016 5.80375 13.2534 5.80375H13.677C13.7798 6.65384 14.1856 7.44103 14.844 8.05986C14.3882 8.26336 13.8757 8.37886 13.3352 8.37886C13.0979 8.37886 12.9055 8.57123 12.9055 8.80855C12.9055 9.04587 13.0979 9.23824 13.3352 9.23824C14.1546 9.23824 14.9406 9.02692 15.6166 8.63414C16.2926 9.02688 17.0787 9.23824 17.8981 9.23824C18.1354 9.23824 18.3278 9.04587 18.3278 8.80855C18.3278 8.57123 18.1354 8.37886 17.8981 8.37886C17.3576 8.37886 16.8451 8.26336 16.3893 8.05986C17.0477 7.44103 17.4534 6.65384 17.5563 5.80375ZM14.5462 5.80375H16.687C16.572 6.50422 16.1811 7.12847 15.6166 7.58695C15.0521 7.12847 14.6613 6.50422 14.5462 5.80375Z" fill="white"/>
<path d="M7.60566 9.96875C7.84297 9.96875 8.03534 9.77638 8.03534 9.53906C8.03534 9.30175 7.84297 9.10938 7.60566 9.10938H7.60531C7.368 9.10938 7.1758 9.30175 7.1758 9.53906C7.1758 9.77638 7.36834 9.96875 7.60566 9.96875Z" fill="white"/>
</svg>
