<svg width="19" height="19" viewBox="0 0 19 19" fill="none" xmlns="http://www.w3.org/2000/svg">
<path fill-rule="evenodd" clip-rule="evenodd" d="M9.50001 1.55005C5.10937 1.55005 1.55005 5.10937 1.55005 9.50001C1.55005 13.8906 5.10937 17.45 9.50001 17.45C9.76876 17.45 10.0342 17.4366 10.2958 17.4107C10.65 17.3755 10.9657 17.6341 11.0009 17.9884C11.0361 18.3427 10.7774 18.6584 10.4231 18.6936C10.1193 18.7238 9.81139 18.7391 9.50001 18.7391C4.39737 18.7391 0.260864 14.6027 0.260864 9.50001C0.260864 4.39737 4.39737 0.260864 9.50001 0.260864C14.6027 0.260864 18.7391 4.39737 18.7391 9.50001C18.7391 9.81139 18.7238 10.1193 18.6936 10.4231C18.6584 10.7774 18.3427 11.0361 17.9884 11.0009C17.6341 10.9657 17.3755 10.65 17.4107 10.2958C17.4366 10.0342 17.45 9.76876 17.45 9.50001C17.45 5.10937 13.8906 1.55005 9.50001 1.55005Z" fill="#8E8E8E"/>
<path fill-rule="evenodd" clip-rule="evenodd" d="M9.49269 5.84729C8.65953 5.84729 7.98564 6.52154 7.98564 7.35133C7.98564 8.18114 8.65953 8.85538 9.49269 8.85538C10.3259 8.85538 10.9998 8.18114 10.9998 7.35133C10.9998 6.52154 10.3259 5.84729 9.49269 5.84729ZM6.69643 7.35133C6.69643 5.80781 7.9492 4.55811 9.49269 4.55811C11.0362 4.55811 12.289 5.80781 12.289 7.35133C12.289 8.89483 11.0362 10.1446 9.49269 10.1446C7.9492 10.1446 6.69643 8.89483 6.69643 7.35133ZM10.266 12.883C8.75012 12.6608 7.14507 13.1464 6.09867 14.2424C5.85283 14.4999 5.4448 14.5093 5.18732 14.2635C4.92984 14.0176 4.92039 13.6096 5.16623 13.3521C6.53054 11.9232 8.5674 11.331 10.4529 11.6074C10.8052 11.659 11.0488 11.9864 10.9973 12.3386C10.9456 12.6909 10.6182 12.9345 10.266 12.883Z" fill="#8E8E8E"/>
<path fill-rule="evenodd" clip-rule="evenodd" d="M15.0865 12.723C13.7811 12.723 12.723 13.7811 12.723 15.0865C12.723 16.3918 13.7811 17.45 15.0865 17.45C16.3918 17.45 17.45 16.3918 17.45 15.0865C17.45 13.7811 16.3918 12.723 15.0865 12.723ZM11.4338 15.0865C11.4338 13.0691 13.0691 11.4338 15.0865 11.4338C17.1038 11.4338 18.7391 13.0691 18.7391 15.0865C18.7391 17.1038 17.1038 18.7391 15.0865 18.7391C13.0691 18.7391 11.4338 17.1038 11.4338 15.0865Z" fill="#8E8E8E"/>
</svg>
