<svg width="22" height="22" viewBox="0 0 22 22" fill="none" xmlns="http://www.w3.org/2000/svg">
<path d="M0.654412 12.309L12.3163 0.647109C12.4637 0.499726 12.6785 0.440773 12.8806 0.489199L18.1504 1.78191L18.8663 1.95877L19.8095 2.19037L20.0411 3.13362L20.218 3.84944L21.5107 9.1193C21.5591 9.32142 21.5001 9.53618 21.3528 9.68357L9.69087 21.3455C9.44874 21.5876 9.05712 21.5876 8.81499 21.3455L0.654412 13.1849C0.412327 12.9427 0.412327 12.5511 0.654412 12.309ZM15.9692 6.03066C16.5987 6.65809 17.6135 6.65809 18.241 6.03066C18.4136 5.85801 18.5378 5.65799 18.6136 5.44324C18.7252 5.14426 18.7421 4.81796 18.6642 4.51056L18.281 4.89375C18.1188 5.05587 17.9062 5.13799 17.6935 5.13799C17.4809 5.13799 17.2682 5.05587 17.1061 4.89375C16.7819 4.56951 16.7819 4.04314 17.1061 3.71894L17.4893 3.33575C17.1819 3.25785 16.8577 3.27469 16.5587 3.38417V3.38628C16.344 3.45997 16.1419 3.5863 15.9692 3.75895C15.3418 4.38633 15.3418 5.40113 15.9692 6.03066Z" fill="#F7D100"/>
<path opacity="0.2" d="M19.9506 9.22876C20.0979 9.08138 20.1569 8.86662 20.1085 8.66449L18.6389 2.67882L18.4368 1.85352L18.8663 1.95879L19.8095 2.19039L20.0411 3.13364L21.5107 9.11927C21.5591 9.3214 21.5001 9.53616 21.3528 9.68354L9.69087 21.3454C9.44874 21.5876 9.05712 21.5876 8.815 21.3454L8.32442 20.8549L19.9506 9.22876Z" fill="white"/>
<path d="M10.919 20.1176L9.69147 21.3452C9.44969 21.587 9.05773 21.587 8.81594 21.3452L0.654671 13.1839C0.412886 12.9421 0.412886 12.5502 0.654671 12.3084L1.88225 11.0808L10.919 20.1176Z" fill="#6097F4"/>
<path d="M17.1062 4.89374C17.2683 5.05586 17.4809 5.13797 17.6936 5.13797C17.9062 5.13797 18.1189 5.05586 18.281 4.89374L18.6642 4.51055C18.5989 4.23473 18.4558 3.97365 18.241 3.75889C18.0263 3.54414 17.7652 3.40096 17.4894 3.33569L17.1062 3.71889C16.7819 4.04313 16.7819 4.5695 17.1062 4.89374Z" fill="#FDFDFF"/>
<path opacity="0.1" d="M17.1062 3.71888C16.7819 4.04312 16.7819 4.56945 17.1062 4.89369C17.2683 5.05581 17.4809 5.13792 17.6936 5.13792C17.9062 5.13792 18.1189 5.05581 18.281 4.89369L18.6642 4.51049C18.7421 4.81789 18.7253 5.14424 18.6137 5.44317C18.6537 5.41159 18.6916 5.3758 18.7274 5.34L20.218 3.84942L20.0411 3.1336L19.8095 2.19035L18.8662 1.95875L18.1504 1.78189L16.6598 3.27252C16.624 3.30831 16.5903 3.34621 16.5587 3.38411C16.8577 3.27463 17.1819 3.25778 17.4893 3.33568L17.1062 3.71888Z" fill="black"/>
<path d="M17.1062 4.89375C17.2683 5.05587 17.4809 5.13799 17.6936 5.13799C17.9062 5.13799 18.1189 5.05587 18.281 4.89375L20.0411 3.13362L20.9843 2.19037C21.3086 1.86613 21.3086 1.33981 20.9843 1.01557C20.8222 0.853445 20.6096 0.771332 20.3969 0.771332C20.1843 0.771332 19.9716 0.853445 19.8095 1.01557L17.1061 3.71895C16.7819 4.04314 16.7819 4.56951 17.1062 4.89375Z" fill="#5963A0"/>
<path opacity="0.2" d="M17.3946 5.08114C17.4915 5.11904 17.5925 5.13799 17.6936 5.13799C17.9062 5.13799 18.1189 5.05587 18.281 4.89375L20.0411 3.13362L20.9843 2.19037C21.3086 1.86613 21.3086 1.33981 20.9843 1.01557C20.8222 0.853445 20.6096 0.771332 20.3969 0.771332C20.2495 0.771332 20.1001 0.811336 19.9695 0.891343C20.0748 0.931347 20.1737 0.994511 20.258 1.07873C20.5822 1.40297 20.5822 1.9293 20.258 2.25354L19.3148 3.19679L17.5546 4.95692C17.5062 5.0053 17.4515 5.04741 17.3946 5.08114Z" fill="white"/>
<path d="M10.0314 12.7357L11.2846 11.4658L12.6696 14.383L13.3952 12.993L12.4684 10.5151L14.282 8.67739C14.5647 8.39092 14.5616 7.92948 14.2751 7.64674C13.9886 7.36401 13.5272 7.36706 13.2444 7.65358L11.4373 9.48469L8.96019 8.57117L7.77141 9.25206L10.3264 10.63L9.05708 11.9162L7.73893 11.7201L7.24393 12.7046L8.9369 12.9217L9.20184 14.6367L10.2914 14.2003L10.0314 12.7357Z" fill="#FDFDFF"/>
<path d="M0.505871 12.1596L1.73336 10.932C1.7337 10.9317 1.73418 10.9316 1.73452 10.9313L12.1675 0.498253C12.3647 0.30107 12.6565 0.218957 12.9308 0.284742L18.8013 1.72609L19.6607 0.86671C20.0688 0.45855 20.7249 0.458464 21.1332 0.86671C21.5392 1.27268 21.5392 1.93328 21.1332 2.33925L20.2738 3.19862L21.7155 9.07022C21.7809 9.34316 21.6989 9.63521 21.5016 9.8324L11.0683 20.2658C11.0681 20.266 11.0681 20.2662 11.0679 20.2665L9.8404 21.494C9.76203 21.5724 9.67076 21.6332 9.57138 21.6744C9.47173 21.7158 9.36401 21.7376 9.25298 21.7376C9.03134 21.7376 8.82286 21.6512 8.6662 21.4943L0.505656 13.3337C0.348778 13.1769 0.26241 12.9684 0.26241 12.7469C0.26241 12.6359 0.284152 12.5282 0.325531 12.4286C0.366738 12.3292 0.427496 12.2379 0.505871 12.1596ZM20.8355 2.04156C21.0772 1.79978 21.0772 1.40623 20.8355 1.16444C20.5917 0.920808 20.2021 0.920851 19.9583 1.16444C19.5018 1.62098 18.0326 3.09017 17.255 3.86778C17.0134 4.10935 17.0169 4.50681 17.255 4.7449C17.4907 4.98032 17.8966 4.98011 18.1321 4.7449C18.9094 3.96755 20.0063 2.87073 20.8355 2.04156ZM17.0263 3.50104C16.6897 3.52037 16.3634 3.66256 16.1181 3.90774C15.5749 4.45103 15.5749 5.33649 16.1181 5.88176C16.6636 6.42498 17.5489 6.42498 18.0921 5.88176C18.3373 5.63646 18.4795 5.31019 18.4988 4.97358C17.9289 5.37852 17.4577 5.54296 16.9573 5.04254C16.575 4.66029 16.5023 4.05847 17.0263 3.50104ZM21.2039 9.53467C21.2984 9.44018 21.3375 9.29984 21.3062 9.16939L19.9257 3.54671L18.8907 4.58175C18.9931 5.15783 18.8094 5.75995 18.3899 6.1795C17.6824 6.88702 16.53 6.88672 15.8206 6.1798C15.8205 6.17958 15.8203 6.17937 15.8201 6.17928C15.113 5.46982 15.1131 4.31732 15.8204 3.61001C16.24 3.19046 16.842 3.00673 17.4182 3.10921L18.4531 2.07418L12.8316 0.693976C12.6999 0.662308 12.5598 0.701582 12.4652 0.795941L2.18011 11.081L10.9189 19.8198L21.2039 9.53467ZM0.803559 13.035L8.96496 21.1963C9.09829 21.3296 9.31743 21.3474 9.47409 21.25C9.49837 21.2348 9.5214 21.2174 9.54211 21.1966L10.6212 20.1175L1.88242 11.3788L0.803385 12.4578C0.764929 12.4963 0.735108 12.5411 0.714827 12.5898C0.694588 12.6387 0.683934 12.6916 0.683934 12.7462C0.683934 12.8553 0.726471 12.9578 0.803559 13.035Z" fill="#2E2E6D"/>
<path d="M7.0559 12.61L7.55081 11.6255C7.59172 11.5443 7.67912 11.4983 7.77 11.5118L8.98227 11.6922L9.97945 10.6821L7.67151 9.43744C7.52679 9.35932 7.52318 9.15144 7.66679 9.06941L8.8556 8.38845C8.90987 8.35729 8.97505 8.35196 9.03302 8.37362L11.3829 9.24026L13.0946 7.50574C13.4616 7.13371 14.0563 7.13496 14.4231 7.49689C14.7916 7.8607 14.7956 8.45668 14.4318 8.82531L12.7126 10.5673L13.5923 12.9192C13.6133 12.9752 13.6095 13.0374 13.5818 13.0904L12.8562 14.4803C12.7766 14.6331 12.5543 14.6309 12.4794 14.4732L11.2234 11.8277L10.2578 12.8061L10.4988 14.1635C10.5163 14.2617 10.4624 14.3587 10.3699 14.3958L9.28013 14.8322C9.15423 14.8823 9.01459 14.8029 8.9937 14.6689L8.75316 13.1104L7.21729 12.9134C7.07356 12.8951 6.99076 12.7398 7.0559 12.61ZM8.96371 12.7129C9.05687 12.7249 9.13064 12.797 9.14504 12.8896L9.36934 14.3428L10.0542 14.0685L9.82416 12.7725C9.81221 12.7053 9.83361 12.6364 9.88152 12.5878L11.1347 11.318C11.2384 11.2127 11.4131 11.2453 11.4748 11.3756L12.6785 13.9109L13.1651 12.9788L12.2712 10.5889C12.2424 10.5121 12.2609 10.4256 12.3185 10.3672L14.132 8.52964C14.3327 8.32618 14.3306 7.99743 14.1273 7.79664C13.9075 7.57986 13.5815 7.61187 13.3943 7.80158L11.5872 9.63273C11.5289 9.69173 11.4416 9.71107 11.3644 9.68228L8.97948 8.80271L8.20454 9.24662L10.4263 10.4448C10.5507 10.512 10.5741 10.6788 10.4763 10.7781L9.20687 12.0643C9.15956 12.1121 9.09356 12.1349 9.02593 12.1246L7.85851 11.9509L7.56551 12.5337L8.96371 12.7129Z" fill="#2E2E6D"/>
</svg>
