<svg width="20" height="20" viewBox="0 0 20 20" fill="none" xmlns="http://www.w3.org/2000/svg">
<path d="M18.1819 14.9404C18.7323 15.4772 19.0219 16.1173 19.0418 16.8429C19.0586 17.3957 18.9019 17.8909 18.5763 18.3141C18.5026 18.4085 18.4227 18.4909 18.3195 18.5941C18.2412 18.6717 18.1627 18.7485 18.0723 18.8182C17.6507 19.1427 17.1467 19.3003 16.6019 19.2836C15.8771 19.2628 15.237 18.9731 14.6994 18.4236L10.7898 14.4235L8.02984 14.8771L8.03868 14.8908C8.20823 15.1668 8.26033 15.4892 8.18587 15.7988C8.11475 16.093 7.93636 16.3395 7.68269 16.4931C7.50671 16.5986 7.29629 16.6522 7.07721 16.6387C6.67956 16.6187 6.30992 16.3922 6.11319 16.0507L5.64831 15.2683L2.92595 15.7155C2.63479 15.7604 2.366 15.6755 2.17475 15.4683L2.07873 15.365C1.73319 14.9907 1.38914 14.6171 1.05711 14.2355C0.889168 14.0418 0.81631 13.7875 0.857961 13.5371C0.899611 13.2883 1.04841 13.0731 1.26672 12.9467L6.54021 10.3266C5.89855 9.67226 5.26426 9.02176 4.63615 8.37622L2.34569 8.54029C2.05613 8.56105 1.82965 8.46355 1.63292 8.25475C1.2985 7.9012 0.965687 7.55069 0.632086 7.20595C0.498427 7.06921 0.356058 6.89631 0.310523 6.64761C0.306505 6.62765 0.305702 6.53886 0.305702 6.51877C0.306506 6.49319 0.310523 6.40038 0.316952 6.3756C0.416998 5.97476 0.72101 5.8092 0.940919 5.71882C1.62972 5.43797 2.32092 5.15324 3.01373 4.86757L4.15548 4.39628L4.63387 3.23711C4.91713 2.54992 5.19945 1.86596 5.47871 1.18199C5.5675 0.962751 5.73237 0.658724 6.20917 0.548391L6.40752 0.55241C6.65394 0.597944 6.82673 0.739639 6.96425 0.873169C7.30978 1.20839 7.65946 1.54119 8.01223 1.87401C8.22343 2.07155 8.31946 2.31156 8.29857 2.58756L8.13531 4.87881C8.78019 5.50521 9.42973 6.1396 10.0857 6.78287L12.6585 1.59818L12.7064 1.50938C12.8329 1.29095 13.0489 1.14215 13.2984 1.10063C13.5465 1.06139 13.8016 1.13183 13.9952 1.30058C14.3808 1.63661 14.7593 1.98537 15.1401 2.3357L15.2281 2.41727C15.4344 2.60771 15.5224 2.87491 15.4745 3.16847L15.0281 5.89083L15.8073 6.35327C16.1537 6.55242 16.3801 6.92207 16.3985 7.31972C16.4097 7.54057 16.3592 7.75096 16.2521 7.92695C16.0993 8.17901 15.852 8.35741 15.5585 8.42852C15.2488 8.50298 14.9273 8.45088 14.652 8.28214L14.6369 8.2733L14.1841 11.0333L18.1819 14.9404ZM6.66596 15.7283C6.75717 15.8868 6.92672 15.9907 7.10914 15.9995C7.17557 16.0027 7.26918 15.9963 7.35235 15.946C7.4587 15.8811 7.53396 15.7764 7.56517 15.6492C7.59878 15.506 7.5732 15.3564 7.49325 15.2252L7.34927 14.9892L6.32605 15.1571L6.66596 15.7283ZM14.7941 2.88522L14.7069 2.80366C14.3302 2.4573 13.9565 2.11246 13.5757 1.78043C13.5093 1.72204 13.4374 1.72445 13.4038 1.73007C13.343 1.74052 13.2902 1.77641 13.2598 1.82931L13.2222 1.90217L10.507 7.37418C10.4799 7.42936 10.4062 7.57574 10.2254 7.60614C10.1191 7.62449 9.9558 7.55177 9.88294 7.48051C9.12934 6.74056 8.38132 6.01092 7.63897 5.2901C7.52781 5.18135 7.47892 5.0493 7.49098 4.8989L7.65892 2.54134C7.66455 2.4725 7.65169 2.41491 7.57254 2.34058C7.21655 2.00455 6.86461 1.66933 6.51812 1.33344C6.41647 1.235 6.35486 1.19429 6.35325 1.18706L6.28923 1.17902C6.20285 1.20058 6.14204 1.24545 6.06999 1.42384C5.79075 2.10863 5.50843 2.79421 5.22437 3.48219L4.69644 4.76375C4.66362 4.84291 4.60121 4.90612 4.52206 4.93813L3.25805 5.45896C2.56445 5.7453 1.87242 6.03098 1.18201 6.31182C1.00362 6.38387 0.958754 6.44468 0.939602 6.53187C0.951655 6.59829 0.991565 6.6591 1.09 6.75981C1.42603 7.10695 1.76207 7.45907 2.09794 7.81502C2.16356 7.88466 2.21553 7.90221 2.27392 7.90221C2.28195 7.90221 2.28986 7.90221 2.29789 7.90141L4.65891 7.73239C4.80529 7.72034 4.94217 7.77163 5.04932 7.88199C5.76932 8.62273 6.49978 9.37074 7.23974 10.1252C7.343 10.2307 7.38532 10.346 7.36456 10.4668C7.34782 10.5677 7.2238 10.702 7.13259 10.7477L1.6623 13.4628C1.6623 13.4628 1.58864 13.5004 1.58784 13.5004C1.53587 13.5308 1.49985 13.5828 1.4902 13.6428C1.48377 13.6788 1.48216 13.7491 1.53975 13.8156C1.86694 14.1915 2.20778 14.5603 2.5493 14.9316L2.64452 15.0349C2.67653 15.0701 2.72206 15.1013 2.82291 15.0844L5.72932 14.6068C5.75195 14.6012 5.77271 14.5964 5.79588 14.5956L10.7567 13.7811C10.9295 13.7523 11.0799 13.8051 11.2079 13.9356L15.1583 17.9765C15.5815 18.4101 16.0599 18.6276 16.6215 18.6437C17.0399 18.6604 17.3807 18.5437 17.6823 18.3101C17.7503 18.2573 17.8095 18.1973 17.8879 18.1204C17.9511 18.0572 18.0143 17.9948 18.0703 17.9221C18.3031 17.6197 18.4158 17.2629 18.4039 16.8613C18.3872 16.2989 18.1687 15.8205 17.7359 15.3981L13.6967 11.4494C13.5638 11.3214 13.5119 11.1685 13.5415 10.9966L14.0799 7.71574C14.0807 7.7061 14.0823 7.6974 14.0847 7.68856L14.3559 6.03574C14.3567 6.01257 14.3607 5.99088 14.3671 5.96771L14.8439 3.06213C14.8598 2.96221 14.8294 2.91815 14.7942 2.88534L14.7941 2.88522ZM14.9853 7.73494C15.1142 7.81489 15.263 7.84047 15.4077 7.80458C15.5342 7.77337 15.6405 7.69904 15.7045 7.59257C15.7541 7.5094 15.7613 7.41418 15.7581 7.34855C15.7493 7.16694 15.6453 6.9974 15.4829 6.90376L14.9157 6.56693L14.7477 7.59016L14.9853 7.73494Z" fill="#B1BBBF" stroke="#B1BBBF" stroke-width="0.5"/>
</svg>
