<svg width="25" height="19" viewBox="0 0 25 19" fill="none" xmlns="http://www.w3.org/2000/svg">
<path d="M20.0166 18.8763C20.3456 18.9644 20.6793 19.008 21.0111 19.008C21.6725 19.008 22.3254 18.8344 22.9136 18.4948C23.7967 17.9849 24.4285 17.1617 24.6924 16.1767C24.9563 15.1917 24.8209 14.1629 24.3109 13.2798C23.8011 12.3966 22.9778 11.7649 21.9928 11.501L17.9166 10.4088L14.322 1.89792L8.76078 0.407898L9.46674 8.14476L7.1327 7.51934L6.80737 5.42961L0 3.60556L1.6417 13.9526L20.0166 18.8763ZM11.0042 3.07139L12.8657 3.57016L15.4781 9.75544L11.5173 8.69414L11.0042 3.07139ZM5.03844 7.01811L5.36377 9.10778L21.4773 13.4254C22.4496 13.686 23.0286 14.6889 22.7681 15.6612C22.6419 16.1322 22.3399 16.5259 21.9176 16.7697C21.4952 17.0134 21.0032 17.0782 20.5324 16.952L3.40657 12.3631L2.4484 6.3241L5.03844 7.01811Z" fill="#8E8E8E"/>
</svg>
